<svg width="153" height="78" viewBox="0 0 153 78" fill="none" xmlns="http://www.w3.org/2000/svg">
<g filter="url(#filter0_b_1492_868)">
<path d="M0.230957 38.7334C0.230957 17.4704 17.468 0.233398 38.731 0.233398H114.269C135.532 0.233398 152.769 17.4704 152.769 38.7334C152.769 59.9964 135.532 77.2334 114.269 77.2334H38.7309C17.468 77.2334 0.230957 59.9964 0.230957 38.7334Z" fill="white" fill-opacity="0.5"/>
<path d="M0.730957 38.7334C0.730957 17.7466 17.7441 0.733398 38.731 0.733398H114.269C135.256 0.733398 152.269 17.7466 152.269 38.7334C152.269 59.7202 135.256 76.7334 114.269 76.7334H38.7309C17.7441 76.7334 0.730957 59.7202 0.730957 38.7334Z" stroke="#DDDDDD"/>
<path d="M0.730957 38.7334C0.730957 17.7466 17.7441 0.733398 38.731 0.733398H114.269C135.256 0.733398 152.269 17.7466 152.269 38.7334C152.269 59.7202 135.256 76.7334 114.269 76.7334H38.7309C17.7441 76.7334 0.730957 59.7202 0.730957 38.7334Z" stroke="url(#paint0_radial_1492_868)" stroke-opacity="0.53"/>
</g>
<defs>
<filter id="filter0_b_1492_868" x="-49.769" y="-49.7666" width="252.538" height="177" filterUnits="userSpaceOnUse" color-interpolation-filters="sRGB">
<feFlood flood-opacity="0" result="BackgroundImageFix"/>
<feGaussianBlur in="BackgroundImageFix" stdDeviation="25"/>
<feComposite in2="SourceAlpha" operator="in" result="effect1_backgroundBlur_1492_868"/>
<feBlend mode="normal" in="SourceGraphic" in2="effect1_backgroundBlur_1492_868" result="shape"/>
</filter>
<radialGradient id="paint0_radial_1492_868" cx="0" cy="0" r="1" gradientUnits="userSpaceOnUse" gradientTransform="translate(77.167 2.12949) rotate(90) scale(72.9989 62.4828)">
<stop stop-color="#BEBEBE"/>
<stop offset="1" stop-color="white" stop-opacity="0"/>
</radialGradient>
</defs>
</svg>
