<svg width="186" height="56" viewBox="0 0 186 56" fill="none" xmlns="http://www.w3.org/2000/svg">
<mask id="path-1-outside-1_1488_23" maskUnits="userSpaceOnUse" x="-4.89373" y="-5.02656" width="196.711" height="68.1617" fill="black">
<rect fill="white" x="-4.89373" y="-5.02656" width="196.711" height="68.1617"/>
<path d="M3.39789 49.2639C4.66823 50.7567 6.51161 51.4004 8.92802 51.1949C10.1606 51.0901 11.3488 50.7523 12.4927 50.1813C13.6366 49.6104 14.585 48.9499 15.338 48.1998C16.0896 47.4335 16.6755 46.6404 17.0959 45.8206C17.5311 44.9832 17.7218 44.2483 17.668 43.6158C17.6156 42.9996 17.1272 42.7307 16.2028 42.8093C15.5379 42.8658 14.7023 43.1247 13.6961 43.5859C12.7061 44.0458 11.8076 44.6204 11.0004 45.3097C10.9773 45.23 10.9325 45.0868 10.8659 44.8801C10.8142 44.6559 10.7848 44.5032 10.778 44.4221C10.7366 43.9356 10.9454 43.5094 11.4043 43.1437C11.5731 43.015 11.9126 42.782 12.423 42.4446C12.932 42.0909 13.2871 41.8484 13.4882 41.717C15.3309 40.3352 16.7782 38.9135 17.8301 37.452C18.8981 35.9891 19.3784 34.6251 19.2709 33.3602C19.2433 33.0358 19.1084 32.7941 18.8662 32.635C18.6226 32.4597 18.3224 32.3872 17.9656 32.4175C17.025 32.4975 15.9696 33.0528 14.7994 34.0833C13.6279 35.0977 12.6013 36.2794 11.7195 37.6285C10.8526 38.9599 10.2782 40.1767 9.99618 41.2788C9.4031 40.6431 9.07278 39.928 9.00522 39.1333C8.91285 38.0467 9.3246 36.9336 10.2405 35.794C11.155 34.6382 12.482 33.627 14.2214 32.7604C15.9609 31.8937 17.8605 31.3729 19.9201 31.1978C21.1364 31.0944 22.0841 31.1935 22.7631 31.4951C23.4584 31.7954 23.835 32.2861 23.8929 32.9672C24.0087 34.3295 23.2056 35.8352 21.4836 37.4844C19.7779 39.1322 17.3206 40.7786 14.1119 42.4235L14.1812 42.6626C15.5628 42.0061 16.951 41.6186 18.3457 41.5C19.3674 41.4132 20.1395 41.5599 20.6618 41.9402C21.1828 42.3043 21.4737 42.8431 21.5343 43.5567C21.6405 44.8054 21.3486 46.0798 20.6587 47.3799C19.9851 48.6786 19.0935 49.8162 17.9841 50.7926C16.8747 51.769 15.6379 52.5928 14.2739 53.2642C12.9261 53.9341 11.6359 54.3215 10.4033 54.4263C9.08972 54.538 7.93053 54.4487 6.92576 54.1584C5.9386 53.8829 5.11587 53.3322 4.45759 52.5061C3.79931 51.6799 3.44608 50.5992 3.39789 49.2639ZM24.0109 49.0551C23.8882 47.6117 24.1073 46.0577 24.6682 44.3928C25.5169 41.8868 26.8166 39.4976 28.5672 37.2253C30.3327 34.9353 32.251 33.0979 34.3222 31.7131C36.4081 30.3106 38.3512 29.5329 40.1513 29.3799C41.8704 29.2337 42.7961 29.9391 42.9284 31.496L42.9574 31.8365C42.5244 31.5467 41.8781 31.4383 41.0186 31.5113C39.0887 31.6754 36.6192 33.6577 33.61 37.4581C32.2503 39.1418 30.9826 41.2343 29.8067 43.7355C28.6295 46.2204 28.0975 48.1278 28.2105 49.4576C28.2726 50.1874 28.6198 50.5254 29.2523 50.4717C29.7713 50.4276 30.4687 49.9844 31.3445 49.1422C32.2365 48.2986 33.1519 47.2489 34.0905 45.993C35.0454 44.7357 35.9233 43.534 36.7243 42.3878C37.5239 41.2254 38.2553 40.126 38.9186 39.0895C39.5819 38.053 39.9209 37.526 39.9358 37.5084C39.9938 37.4218 40.6596 36.3198 41.9334 34.2023C43.2234 32.0835 43.9352 30.9449 44.0687 30.7865C44.584 30.122 45.0089 29.6448 45.3437 29.355C45.677 29.049 46.0707 28.8766 46.5248 28.838C47.2384 28.7774 47.8712 28.9196 48.4233 29.2647C48.9739 29.5936 49.5372 30.1664 50.113 30.9832C49.4328 31.6291 48.2863 33.0333 46.6733 35.196C46.0732 36.0147 45.4259 36.9518 44.7316 38.0073C44.0535 39.0613 43.3303 40.2581 42.5621 41.5975C41.8087 42.9193 41.2006 44.2206 40.7378 45.5014C40.2912 46.7808 40.1023 47.826 40.1713 48.6368C40.2154 49.1558 40.3796 49.5502 40.6639 49.8201C40.9644 50.0885 41.3661 50.2014 41.8688 50.1587C42.4851 50.1063 43.2259 49.7901 44.0914 49.2102C43.1206 50.6648 41.9784 51.448 40.6648 51.5596C39.5782 51.652 38.7073 51.3994 38.0521 50.8017C37.3969 50.204 37.0183 49.3051 36.9163 48.105C36.8294 47.0833 36.898 46.0647 37.1221 45.0492C37.3623 44.0324 37.728 42.8579 38.2191 41.5257C38.1894 41.5609 37.9953 41.8714 37.6368 42.4573C37.293 43.0255 37.0416 43.4308 36.8825 43.673C36.7397 43.9138 36.4512 44.363 36.017 45.0207C35.5977 45.6607 35.2559 46.1553 34.9916 46.5045C34.7272 46.8536 34.3597 47.3341 33.889 47.9458C33.4331 48.5399 33.0244 49.0157 32.6627 49.3732C32.3173 49.7292 31.9023 50.132 31.4178 50.5816C30.9496 51.0298 30.5061 51.386 30.0876 51.6503C29.6852 51.9132 29.247 52.1383 28.7729 52.3256C28.3163 52.5278 27.8691 52.6474 27.4313 52.6847C26.442 52.7688 25.6508 52.493 25.0577 51.8574C24.4647 51.2217 24.1157 50.2876 24.0109 49.0551ZM63.6209 46.0553C63.5271 44.9525 63.8048 43.7038 64.454 42.3091C65.118 40.8969 66.0168 39.2687 67.1505 37.4245C68.299 35.5627 69.7578 33.3152 71.5267 30.6819C73.3119 28.0472 74.522 26.2374 75.157 25.2523C73.3674 26.8746 71.5166 28.257 69.6046 29.3997C67.6925 30.5423 65.9662 31.1791 64.4255 31.3101C63.0957 31.4231 62.3887 30.985 62.3046 29.9958C62.2867 29.7849 62.2936 29.4822 62.3254 29.0874C63.0472 29.1241 63.7893 29.11 64.5515 29.0452C66.1408 28.9101 67.9153 28.359 69.8749 27.392C72.2438 26.2432 74.1862 25.0735 75.7021 23.8829C76.4154 22.8585 77.0468 22.1187 77.5962 21.6637C78.1441 21.1924 78.7425 20.9292 79.3912 20.874C79.7642 20.8423 80.2252 20.8848 80.7741 21.0015C80.2513 21.9607 78.6281 24.8674 75.9045 29.7217C73.1809 34.5759 71.2888 37.9711 70.2283 39.9071C68.7029 42.7156 67.1421 45.7804 65.546 49.1014C64.3784 48.4329 63.7367 47.4175 63.6209 46.0553ZM82.0116 44.4918C81.9178 43.389 82.1955 42.1403 82.8447 40.7457C83.5087 39.3334 84.4075 37.7052 85.5412 35.861C86.6897 33.9992 88.1484 31.7517 89.9174 29.1184C91.7026 26.4838 92.9127 24.6739 93.5477 23.6889C91.7581 25.3111 89.9073 26.6936 87.9953 27.8362C86.0832 28.9788 84.3569 29.6157 82.8162 29.7466C81.4864 29.8597 80.7794 29.4216 80.6953 28.4323C80.6774 28.2215 80.6843 27.9187 80.7161 27.524C81.4379 27.5606 82.18 27.5465 82.9422 27.4817C84.5315 27.3466 86.306 26.7956 88.2656 25.8286C90.6345 24.6798 92.5769 23.51 94.0928 22.3194C94.8061 21.295 95.4375 20.5553 95.9868 20.1002C96.5348 19.6289 97.1332 19.3657 97.7819 19.3106C98.1549 19.2788 98.6159 19.3213 99.1648 19.438C98.642 20.3972 97.0188 23.3039 94.2952 28.1582C91.5716 33.0125 89.6795 36.4076 88.619 38.3436C87.0936 41.1522 85.5328 44.217 83.9367 47.5379C82.7691 46.8695 82.1274 45.8541 82.0116 44.4918ZM106.302 41.7162C106.087 39.1863 106.813 36.5845 108.481 33.9108C110.163 31.2196 112.326 28.8959 114.969 26.9397C117.628 24.9659 120.373 23.54 123.206 22.6621C123.419 20.9452 123.45 19.1866 123.297 17.3865C123.033 14.2889 122.17 12.0182 120.708 10.5744C119.246 9.13059 117.339 8.50863 114.988 8.70854C112.052 8.95809 109.668 10.0265 107.836 11.9138C108.635 10.3594 109.88 9.06106 111.572 8.01881C113.263 6.96035 115.081 6.3484 117.027 6.18295C123.449 5.63699 126.958 8.86699 127.554 15.873C127.741 18.0786 127.642 20.3657 127.255 22.7345C126.883 25.0856 126.296 27.308 125.494 29.4017C124.692 31.4954 123.711 33.5063 122.552 35.4343C121.408 37.3448 120.177 39.0094 118.86 40.4281C117.558 41.8292 116.177 42.9676 114.716 43.8432C113.271 44.7174 111.876 45.2118 110.529 45.3262C109.232 45.4365 108.23 45.1786 107.523 44.5527C106.815 43.9104 106.408 42.965 106.302 41.7162ZM110.524 41.7984C110.639 43.1607 111.232 43.7963 112.303 43.7053C113.195 43.6295 114.226 42.8803 115.395 41.4578C116.581 40.0338 117.685 38.3228 118.707 36.3247C119.745 34.309 120.664 32.1482 121.464 29.8423C122.265 27.5364 122.778 25.5 123.003 23.733C120.93 24.7096 118.859 26.2905 116.791 28.4755C114.721 30.6443 113.161 32.8514 112.11 35.0969C111.709 35.9478 111.318 37.0183 110.937 38.3084C110.573 39.5971 110.435 40.7605 110.524 41.7984ZM124.138 42.8462C124.112 42.5381 124.162 42.1744 124.29 41.7551C124.4 41.3211 124.615 40.772 124.934 40.1078C125.27 39.4422 125.564 38.8699 125.817 38.391C126.069 37.8959 126.471 37.1512 127.024 36.1568C127.591 35.1448 128.016 34.3817 128.299 33.8676C128.909 32.7704 129.347 31.9655 129.613 31.4527C129.896 30.9386 130.302 30.1364 130.83 29.0461C131.358 27.9558 131.74 27.0739 131.977 26.4004C132.229 25.7093 132.45 24.9553 132.642 24.1386C132.833 23.3057 132.903 22.5892 132.852 21.9892C132.832 21.7621 132.802 21.6013 132.762 21.5068C134.421 21.431 135.612 21.5993 136.333 22.0117C137.054 22.4241 137.453 23.0844 137.53 23.9926C137.602 24.8359 137.33 25.9535 136.713 27.3454C136.096 28.7373 135.461 29.9183 134.809 30.8886L133.83 32.3439C136.698 31.6917 138.678 31.1558 139.77 30.7363C140.59 29.6212 141.626 27.8752 142.877 25.4982C144.128 23.1051 144.803 21.3407 144.902 20.2051C145.933 20.2318 146.849 20.4398 147.65 20.8291C148.467 21.217 148.91 21.8164 148.979 22.6273C149.029 23.2111 148.745 24.101 148.128 25.2968C147.526 26.4751 146.818 27.6624 146.005 28.8586C145.192 30.0548 144.273 31.4398 143.247 33.0135C142.236 34.5696 141.469 35.8353 140.948 36.8107C140.135 38.3989 139.766 39.6309 139.841 40.5066C139.907 41.2851 140.305 41.6433 141.035 41.5812C141.975 41.5013 143.14 40.8877 144.529 39.7405C145.934 38.592 147.252 37.2794 148.482 35.8027C149.711 34.3097 150.793 32.9191 151.729 31.6308C152.664 30.3262 153.27 29.3845 153.547 28.8055C153.837 28.9442 153.995 29.1677 154.021 29.4758C154.047 29.7839 153.925 30.1781 153.656 30.6584C153.47 30.9683 153.106 31.4893 152.564 32.2214C152.038 32.9522 151.249 33.9503 150.196 35.2159C149.159 36.4638 148.091 37.6328 146.991 38.7227C145.891 39.8126 144.667 40.7824 143.318 41.6322C141.985 42.4805 140.767 42.9516 139.665 43.0453C138.627 43.1336 137.792 42.9268 137.162 42.425C136.547 41.9219 136.199 41.1919 136.118 40.2351C136.027 39.1647 136.228 37.9797 136.722 36.6799C137.231 35.3625 138.097 33.729 139.319 31.7792C135.411 32.8792 133.345 33.4551 133.12 33.5068C131.846 35.2323 130.479 37.2188 129.02 39.4663C127.577 41.6963 126.542 43.4585 125.917 44.7531C124.815 44.4711 124.222 43.8355 124.138 42.8462ZM148.589 39.0769C148.517 38.2335 148.689 37.2797 149.105 36.2152C149.521 35.1508 150.039 34.1267 150.657 33.143C151.292 32.158 152.069 30.826 152.988 29.147C153.906 27.4519 154.695 25.784 155.356 24.1433C155.883 22.8408 156.117 21.4651 156.059 20.0162L156.399 19.9873C157.908 19.859 158.992 19.9302 159.652 20.2008C160.328 20.47 160.697 20.9614 160.757 21.675C160.815 22.3561 160.51 23.3785 159.842 24.742C159.19 26.1043 158.375 27.5701 157.398 29.1397C156.421 30.7092 155.436 32.2876 154.444 33.8747C153.452 35.4619 152.601 36.9879 151.893 38.453C151.184 39.918 150.833 41.0668 150.838 41.8994C149.459 41.4286 148.709 40.4878 148.589 39.0769ZM157.683 14.9043C157.82 14.7945 158.011 14.6395 158.256 14.439C158.516 14.2372 158.99 13.7559 159.676 12.9951C160.362 12.2181 161.008 11.3709 161.617 10.4535C162.079 9.74443 162.47 9.06592 162.791 8.41794C163.128 7.76859 163.349 7.29243 163.454 6.98949L163.587 6.53714C164.595 7.25183 165.15 8.20923 165.252 9.40933C165.382 10.9338 164.921 12.2389 163.87 13.3247C162.817 14.3942 161.513 14.9952 159.956 15.1275C159.372 15.1772 158.614 15.1028 157.683 14.9043ZM160.591 36.4394C160.448 34.7527 160.744 32.9471 161.478 31.0225C162.23 29.0965 163.283 27.2754 164.64 25.5592C166.013 23.8417 167.537 22.2584 169.21 20.8093C170.9 19.3589 172.67 18.1793 174.521 17.2706C176.371 16.3619 178.099 15.8393 179.704 15.7028C181.115 15.5829 182.124 15.7258 182.73 16.1317C183.336 16.5375 183.675 17.1621 183.747 18.0054C183.853 19.2542 183.361 20.4803 182.271 21.6837C181.181 22.8871 179.693 23.9284 177.808 24.8074C175.922 25.6864 173.822 26.3468 171.507 26.7886L171.524 26.9832C171.927 26.9163 172.323 26.8663 172.712 26.8332C174.561 26.676 175.888 26.8245 176.695 27.2787C177.517 27.7315 177.969 28.4363 178.05 29.3931C178.14 30.4473 177.83 31.6089 177.122 32.8779C176.429 34.1455 175.5 35.3271 174.336 36.4225C173.187 37.5166 171.83 38.465 170.265 39.2678C168.715 40.053 167.194 40.509 165.702 40.6358C164.291 40.7558 163.114 40.4638 162.172 39.7598C161.247 39.0544 160.72 37.9476 160.591 36.4394ZM164.352 37.7368C164.398 38.2719 164.591 38.7129 164.931 39.0597C165.269 39.3903 165.795 39.5253 166.509 39.4646C167.611 39.3709 168.755 38.7019 169.94 37.4578C171.124 36.2136 172.068 34.8185 172.769 33.2724C173.471 31.7263 173.778 30.4424 173.691 29.4207C173.647 28.9017 173.446 28.4614 173.089 28.0998C172.732 27.7381 172.164 27.5904 171.385 27.6566C169.991 27.7751 168.753 28.011 167.672 28.3643C166.603 30.007 165.757 31.6797 165.134 33.3825C164.511 35.0852 164.25 36.5367 164.352 37.7368ZM168.365 27.0067C169.849 26.5866 171.475 25.8357 173.246 24.7542C175.032 23.6712 176.555 22.4637 177.814 21.1315C179.087 19.7818 179.684 18.6285 179.602 17.6717C179.562 17.2014 179.283 16.9883 178.764 17.0324C177.645 17.1275 176.089 18.1337 174.095 20.051C172.102 21.9683 170.192 24.2868 168.365 27.0067Z"/>
</mask>
<path d="M3.39789 49.2639C4.66823 50.7567 6.51161 51.4004 8.92802 51.1949C10.1606 51.0901 11.3488 50.7523 12.4927 50.1813C13.6366 49.6104 14.585 48.9499 15.338 48.1998C16.0896 47.4335 16.6755 46.6404 17.0959 45.8206C17.5311 44.9832 17.7218 44.2483 17.668 43.6158C17.6156 42.9996 17.1272 42.7307 16.2028 42.8093C15.5379 42.8658 14.7023 43.1247 13.6961 43.5859C12.7061 44.0458 11.8076 44.6204 11.0004 45.3097C10.9773 45.23 10.9325 45.0868 10.8659 44.8801C10.8142 44.6559 10.7848 44.5032 10.778 44.4221C10.7366 43.9356 10.9454 43.5094 11.4043 43.1437C11.5731 43.015 11.9126 42.782 12.423 42.4446C12.932 42.0909 13.2871 41.8484 13.4882 41.717C15.3309 40.3352 16.7782 38.9135 17.8301 37.452C18.8981 35.9891 19.3784 34.6251 19.2709 33.3602C19.2433 33.0358 19.1084 32.7941 18.8662 32.635C18.6226 32.4597 18.3224 32.3872 17.9656 32.4175C17.025 32.4975 15.9696 33.0528 14.7994 34.0833C13.6279 35.0977 12.6013 36.2794 11.7195 37.6285C10.8526 38.9599 10.2782 40.1767 9.99618 41.2788C9.4031 40.6431 9.07278 39.928 9.00522 39.1333C8.91285 38.0467 9.3246 36.9336 10.2405 35.794C11.155 34.6382 12.482 33.627 14.2214 32.7604C15.9609 31.8937 17.8605 31.3729 19.9201 31.1978C21.1364 31.0944 22.0841 31.1935 22.7631 31.4951C23.4584 31.7954 23.835 32.2861 23.8929 32.9672C24.0087 34.3295 23.2056 35.8352 21.4836 37.4844C19.7779 39.1322 17.3206 40.7786 14.1119 42.4235L14.1812 42.6626C15.5628 42.0061 16.951 41.6186 18.3457 41.5C19.3674 41.4132 20.1395 41.5599 20.6618 41.9402C21.1828 42.3043 21.4737 42.8431 21.5343 43.5567C21.6405 44.8054 21.3486 46.0798 20.6587 47.3799C19.9851 48.6786 19.0935 49.8162 17.9841 50.7926C16.8747 51.769 15.6379 52.5928 14.2739 53.2642C12.9261 53.9341 11.6359 54.3215 10.4033 54.4263C9.08972 54.538 7.93053 54.4487 6.92576 54.1584C5.9386 53.8829 5.11587 53.3322 4.45759 52.5061C3.79931 51.6799 3.44608 50.5992 3.39789 49.2639ZM24.0109 49.0551C23.8882 47.6117 24.1073 46.0577 24.6682 44.3928C25.5169 41.8868 26.8166 39.4976 28.5672 37.2253C30.3327 34.9353 32.251 33.0979 34.3222 31.7131C36.4081 30.3106 38.3512 29.5329 40.1513 29.3799C41.8704 29.2337 42.7961 29.9391 42.9284 31.496L42.9574 31.8365C42.5244 31.5467 41.8781 31.4383 41.0186 31.5113C39.0887 31.6754 36.6192 33.6577 33.61 37.4581C32.2503 39.1418 30.9826 41.2343 29.8067 43.7355C28.6295 46.2204 28.0975 48.1278 28.2105 49.4576C28.2726 50.1874 28.6198 50.5254 29.2523 50.4717C29.7713 50.4276 30.4687 49.9844 31.3445 49.1422C32.2365 48.2986 33.1519 47.2489 34.0905 45.993C35.0454 44.7357 35.9233 43.534 36.7243 42.3878C37.5239 41.2254 38.2553 40.126 38.9186 39.0895C39.5819 38.053 39.9209 37.526 39.9358 37.5084C39.9938 37.4218 40.6596 36.3198 41.9334 34.2023C43.2234 32.0835 43.9352 30.9449 44.0687 30.7865C44.584 30.122 45.0089 29.6448 45.3437 29.355C45.677 29.049 46.0707 28.8766 46.5248 28.838C47.2384 28.7774 47.8712 28.9196 48.4233 29.2647C48.9739 29.5936 49.5372 30.1664 50.113 30.9832C49.4328 31.6291 48.2863 33.0333 46.6733 35.196C46.0732 36.0147 45.4259 36.9518 44.7316 38.0073C44.0535 39.0613 43.3303 40.2581 42.5621 41.5975C41.8087 42.9193 41.2006 44.2206 40.7378 45.5014C40.2912 46.7808 40.1023 47.826 40.1713 48.6368C40.2154 49.1558 40.3796 49.5502 40.6639 49.8201C40.9644 50.0885 41.3661 50.2014 41.8688 50.1587C42.4851 50.1063 43.2259 49.7901 44.0914 49.2102C43.1206 50.6648 41.9784 51.448 40.6648 51.5596C39.5782 51.652 38.7073 51.3994 38.0521 50.8017C37.3969 50.204 37.0183 49.3051 36.9163 48.105C36.8294 47.0833 36.898 46.0647 37.1221 45.0492C37.3623 44.0324 37.728 42.8579 38.2191 41.5257C38.1894 41.5609 37.9953 41.8714 37.6368 42.4573C37.293 43.0255 37.0416 43.4308 36.8825 43.673C36.7397 43.9138 36.4512 44.363 36.017 45.0207C35.5977 45.6607 35.2559 46.1553 34.9916 46.5045C34.7272 46.8536 34.3597 47.3341 33.889 47.9458C33.4331 48.5399 33.0244 49.0157 32.6627 49.3732C32.3173 49.7292 31.9023 50.132 31.4178 50.5816C30.9496 51.0298 30.5061 51.386 30.0876 51.6503C29.6852 51.9132 29.247 52.1383 28.7729 52.3256C28.3163 52.5278 27.8691 52.6474 27.4313 52.6847C26.442 52.7688 25.6508 52.493 25.0577 51.8574C24.4647 51.2217 24.1157 50.2876 24.0109 49.0551ZM63.6209 46.0553C63.5271 44.9525 63.8048 43.7038 64.454 42.3091C65.118 40.8969 66.0168 39.2687 67.1505 37.4245C68.299 35.5627 69.7578 33.3152 71.5267 30.6819C73.3119 28.0472 74.522 26.2374 75.157 25.2523C73.3674 26.8746 71.5166 28.257 69.6046 29.3997C67.6925 30.5423 65.9662 31.1791 64.4255 31.3101C63.0957 31.4231 62.3887 30.985 62.3046 29.9958C62.2867 29.7849 62.2936 29.4822 62.3254 29.0874C63.0472 29.1241 63.7893 29.11 64.5515 29.0452C66.1408 28.9101 67.9153 28.359 69.8749 27.392C72.2438 26.2432 74.1862 25.0735 75.7021 23.8829C76.4154 22.8585 77.0468 22.1187 77.5962 21.6637C78.1441 21.1924 78.7425 20.9292 79.3912 20.874C79.7642 20.8423 80.2252 20.8848 80.7741 21.0015C80.2513 21.9607 78.6281 24.8674 75.9045 29.7217C73.1809 34.5759 71.2888 37.9711 70.2283 39.9071C68.7029 42.7156 67.1421 45.7804 65.546 49.1014C64.3784 48.4329 63.7367 47.4175 63.6209 46.0553ZM82.0116 44.4918C81.9178 43.389 82.1955 42.1403 82.8447 40.7457C83.5087 39.3334 84.4075 37.7052 85.5412 35.861C86.6897 33.9992 88.1484 31.7517 89.9174 29.1184C91.7026 26.4838 92.9127 24.6739 93.5477 23.6889C91.7581 25.3111 89.9073 26.6936 87.9953 27.8362C86.0832 28.9788 84.3569 29.6157 82.8162 29.7466C81.4864 29.8597 80.7794 29.4216 80.6953 28.4323C80.6774 28.2215 80.6843 27.9187 80.7161 27.524C81.4379 27.5606 82.18 27.5465 82.9422 27.4817C84.5315 27.3466 86.306 26.7956 88.2656 25.8286C90.6345 24.6798 92.5769 23.51 94.0928 22.3194C94.8061 21.295 95.4375 20.5553 95.9868 20.1002C96.5348 19.6289 97.1332 19.3657 97.7819 19.3106C98.1549 19.2788 98.6159 19.3213 99.1648 19.438C98.642 20.3972 97.0188 23.3039 94.2952 28.1582C91.5716 33.0125 89.6795 36.4076 88.619 38.3436C87.0936 41.1522 85.5328 44.217 83.9367 47.5379C82.7691 46.8695 82.1274 45.8541 82.0116 44.4918ZM106.302 41.7162C106.087 39.1863 106.813 36.5845 108.481 33.9108C110.163 31.2196 112.326 28.8959 114.969 26.9397C117.628 24.9659 120.373 23.54 123.206 22.6621C123.419 20.9452 123.45 19.1866 123.297 17.3865C123.033 14.2889 122.17 12.0182 120.708 10.5744C119.246 9.13059 117.339 8.50863 114.988 8.70854C112.052 8.95809 109.668 10.0265 107.836 11.9138C108.635 10.3594 109.88 9.06106 111.572 8.01881C113.263 6.96035 115.081 6.3484 117.027 6.18295C123.449 5.63699 126.958 8.86699 127.554 15.873C127.741 18.0786 127.642 20.3657 127.255 22.7345C126.883 25.0856 126.296 27.308 125.494 29.4017C124.692 31.4954 123.711 33.5063 122.552 35.4343C121.408 37.3448 120.177 39.0094 118.86 40.4281C117.558 41.8292 116.177 42.9676 114.716 43.8432C113.271 44.7174 111.876 45.2118 110.529 45.3262C109.232 45.4365 108.23 45.1786 107.523 44.5527C106.815 43.9104 106.408 42.965 106.302 41.7162ZM110.524 41.7984C110.639 43.1607 111.232 43.7963 112.303 43.7053C113.195 43.6295 114.226 42.8803 115.395 41.4578C116.581 40.0338 117.685 38.3228 118.707 36.3247C119.745 34.309 120.664 32.1482 121.464 29.8423C122.265 27.5364 122.778 25.5 123.003 23.733C120.93 24.7096 118.859 26.2905 116.791 28.4755C114.721 30.6443 113.161 32.8514 112.11 35.0969C111.709 35.9478 111.318 37.0183 110.937 38.3084C110.573 39.5971 110.435 40.7605 110.524 41.7984ZM124.138 42.8462C124.112 42.5381 124.162 42.1744 124.29 41.7551C124.4 41.3211 124.615 40.772 124.934 40.1078C125.27 39.4422 125.564 38.8699 125.817 38.391C126.069 37.8959 126.471 37.1512 127.024 36.1568C127.591 35.1448 128.016 34.3817 128.299 33.8676C128.909 32.7704 129.347 31.9655 129.613 31.4527C129.896 30.9386 130.302 30.1364 130.83 29.0461C131.358 27.9558 131.74 27.0739 131.977 26.4004C132.229 25.7093 132.45 24.9553 132.642 24.1386C132.833 23.3057 132.903 22.5892 132.852 21.9892C132.832 21.7621 132.802 21.6013 132.762 21.5068C134.421 21.431 135.612 21.5993 136.333 22.0117C137.054 22.4241 137.453 23.0844 137.53 23.9926C137.602 24.8359 137.33 25.9535 136.713 27.3454C136.096 28.7373 135.461 29.9183 134.809 30.8886L133.83 32.3439C136.698 31.6917 138.678 31.1558 139.77 30.7363C140.59 29.6212 141.626 27.8752 142.877 25.4982C144.128 23.1051 144.803 21.3407 144.902 20.2051C145.933 20.2318 146.849 20.4398 147.65 20.8291C148.467 21.217 148.91 21.8164 148.979 22.6273C149.029 23.2111 148.745 24.101 148.128 25.2968C147.526 26.4751 146.818 27.6624 146.005 28.8586C145.192 30.0548 144.273 31.4398 143.247 33.0135C142.236 34.5696 141.469 35.8353 140.948 36.8107C140.135 38.3989 139.766 39.6309 139.841 40.5066C139.907 41.2851 140.305 41.6433 141.035 41.5812C141.975 41.5013 143.14 40.8877 144.529 39.7405C145.934 38.592 147.252 37.2794 148.482 35.8027C149.711 34.3097 150.793 32.9191 151.729 31.6308C152.664 30.3262 153.27 29.3845 153.547 28.8055C153.837 28.9442 153.995 29.1677 154.021 29.4758C154.047 29.7839 153.925 30.1781 153.656 30.6584C153.47 30.9683 153.106 31.4893 152.564 32.2214C152.038 32.9522 151.249 33.9503 150.196 35.2159C149.159 36.4638 148.091 37.6328 146.991 38.7227C145.891 39.8126 144.667 40.7824 143.318 41.6322C141.985 42.4805 140.767 42.9516 139.665 43.0453C138.627 43.1336 137.792 42.9268 137.162 42.425C136.547 41.9219 136.199 41.1919 136.118 40.2351C136.027 39.1647 136.228 37.9797 136.722 36.6799C137.231 35.3625 138.097 33.729 139.319 31.7792C135.411 32.8792 133.345 33.4551 133.12 33.5068C131.846 35.2323 130.479 37.2188 129.02 39.4663C127.577 41.6963 126.542 43.4585 125.917 44.7531C124.815 44.4711 124.222 43.8355 124.138 42.8462ZM148.589 39.0769C148.517 38.2335 148.689 37.2797 149.105 36.2152C149.521 35.1508 150.039 34.1267 150.657 33.143C151.292 32.158 152.069 30.826 152.988 29.147C153.906 27.4519 154.695 25.784 155.356 24.1433C155.883 22.8408 156.117 21.4651 156.059 20.0162L156.399 19.9873C157.908 19.859 158.992 19.9302 159.652 20.2008C160.328 20.47 160.697 20.9614 160.757 21.675C160.815 22.3561 160.51 23.3785 159.842 24.742C159.19 26.1043 158.375 27.5701 157.398 29.1397C156.421 30.7092 155.436 32.2876 154.444 33.8747C153.452 35.4619 152.601 36.9879 151.893 38.453C151.184 39.918 150.833 41.0668 150.838 41.8994C149.459 41.4286 148.709 40.4878 148.589 39.0769ZM157.683 14.9043C157.82 14.7945 158.011 14.6395 158.256 14.439C158.516 14.2372 158.99 13.7559 159.676 12.9951C160.362 12.2181 161.008 11.3709 161.617 10.4535C162.079 9.74443 162.47 9.06592 162.791 8.41794C163.128 7.76859 163.349 7.29243 163.454 6.98949L163.587 6.53714C164.595 7.25183 165.15 8.20923 165.252 9.40933C165.382 10.9338 164.921 12.2389 163.87 13.3247C162.817 14.3942 161.513 14.9952 159.956 15.1275C159.372 15.1772 158.614 15.1028 157.683 14.9043ZM160.591 36.4394C160.448 34.7527 160.744 32.9471 161.478 31.0225C162.23 29.0965 163.283 27.2754 164.64 25.5592C166.013 23.8417 167.537 22.2584 169.21 20.8093C170.9 19.3589 172.67 18.1793 174.521 17.2706C176.371 16.3619 178.099 15.8393 179.704 15.7028C181.115 15.5829 182.124 15.7258 182.73 16.1317C183.336 16.5375 183.675 17.1621 183.747 18.0054C183.853 19.2542 183.361 20.4803 182.271 21.6837C181.181 22.8871 179.693 23.9284 177.808 24.8074C175.922 25.6864 173.822 26.3468 171.507 26.7886L171.524 26.9832C171.927 26.9163 172.323 26.8663 172.712 26.8332C174.561 26.676 175.888 26.8245 176.695 27.2787C177.517 27.7315 177.969 28.4363 178.05 29.3931C178.14 30.4473 177.83 31.6089 177.122 32.8779C176.429 34.1455 175.5 35.3271 174.336 36.4225C173.187 37.5166 171.83 38.465 170.265 39.2678C168.715 40.053 167.194 40.509 165.702 40.6358C164.291 40.7558 163.114 40.4638 162.172 39.7598C161.247 39.0544 160.72 37.9476 160.591 36.4394ZM164.352 37.7368C164.398 38.2719 164.591 38.7129 164.931 39.0597C165.269 39.3903 165.795 39.5253 166.509 39.4646C167.611 39.3709 168.755 38.7019 169.94 37.4578C171.124 36.2136 172.068 34.8185 172.769 33.2724C173.471 31.7263 173.778 30.4424 173.691 29.4207C173.647 28.9017 173.446 28.4614 173.089 28.0998C172.732 27.7381 172.164 27.5904 171.385 27.6566C169.991 27.7751 168.753 28.011 167.672 28.3643C166.603 30.007 165.757 31.6797 165.134 33.3825C164.511 35.0852 164.25 36.5367 164.352 37.7368ZM168.365 27.0067C169.849 26.5866 171.475 25.8357 173.246 24.7542C175.032 23.6712 176.555 22.4637 177.814 21.1315C179.087 19.7818 179.684 18.6285 179.602 17.6717C179.562 17.2014 179.283 16.9883 178.764 17.0324C177.645 17.1275 176.089 18.1337 174.095 20.051C172.102 21.9683 170.192 24.2868 168.365 27.0067Z" fill="url(#paint0_linear_1488_23)"/>
<path d="M3.39789 49.2639L7.20576 46.0235L-2.11762 35.0673L-1.59886 49.4441L3.39789 49.2639ZM15.338 48.1998L18.8667 51.7421L18.8872 51.7216L18.9076 51.7009L15.338 48.1998ZM17.0959 45.8206L12.6592 43.515L12.6529 43.5271L12.6467 43.5393L17.0959 45.8206ZM13.6961 43.5859L11.6126 39.0407L11.6012 39.046L11.5897 39.0513L13.6961 43.5859ZM11.0004 45.3097L6.19821 46.7021L8.35585 54.1437L14.2476 49.1118L11.0004 45.3097ZM10.8659 44.8801L5.99384 46.004L6.04158 46.2109L6.10669 46.4131L10.8659 44.8801ZM11.4043 43.1437L8.37229 39.168L8.33 39.2002L8.2884 39.2334L11.4043 43.1437ZM12.423 42.4446L15.1805 46.6155L15.2286 46.5837L15.2759 46.5508L12.423 42.4446ZM13.4882 41.717L16.2231 45.9027L16.3585 45.8142L16.4879 45.7172L13.4882 41.717ZM17.8301 37.452L13.7918 34.5037L13.7818 34.5175L13.7718 34.5313L17.8301 37.452ZM18.8662 32.635L15.9455 36.6933L16.0321 36.7556L16.1212 36.8141L18.8662 32.635ZM14.7994 34.0833L18.0723 37.8634L18.0882 37.8496L18.1041 37.8356L14.7994 34.0833ZM11.7195 37.6285L7.53418 34.893L7.52938 34.9003L11.7195 37.6285ZM9.99618 41.2788L6.3404 44.6898L12.5747 51.3714L14.8401 42.5183L9.99618 41.2788ZM10.2405 35.794L14.1378 38.9262L14.1498 38.9113L14.1616 38.8964L10.2405 35.794ZM22.7631 31.4951L20.7333 36.0646L20.757 36.0751L20.7807 36.0854L22.7631 31.4951ZM21.4836 37.4844L18.0252 33.8734L18.0175 33.8809L18.0097 33.8884L21.4836 37.4844ZM14.1119 42.4235L11.831 37.9741L8.16127 39.8552L9.30963 43.8159L14.1119 42.4235ZM14.1812 42.6626L9.37897 44.055L11.0163 49.7022L16.3271 47.1787L14.1812 42.6626ZM20.6618 41.9402L17.719 45.9824L17.7581 46.0109L17.7978 46.0386L20.6618 41.9402ZM20.6587 47.3799L16.242 45.0362L16.2311 45.0569L16.2203 45.0776L20.6587 47.3799ZM14.2739 53.2642L12.066 48.7781L12.0571 48.7824L12.0483 48.7868L14.2739 53.2642ZM6.92576 54.1584L8.31353 49.3548L8.29157 49.3485L8.26955 49.3423L6.92576 54.1584ZM-0.409975 52.5042C2.15757 55.5214 5.75479 56.4827 9.35156 56.177L8.50449 46.2129C7.83262 46.27 7.49838 46.1865 7.38153 46.1457C7.30181 46.1179 7.2677 46.0962 7.20576 46.0235L-0.409975 52.5042ZM9.35156 56.177C11.2351 56.0168 13.0355 55.4986 14.7256 54.655L10.2597 45.7076C9.66207 46.0059 9.086 46.1635 8.50449 46.2129L9.35156 56.177ZM14.7256 54.655C16.2544 53.8919 17.6665 52.9377 18.8667 51.7421L11.8093 44.6574C11.5035 44.962 11.0187 45.3288 10.2597 45.7076L14.7256 54.655ZM18.9076 51.7009C19.9554 50.6326 20.8604 49.4373 21.5451 48.102L12.6467 43.5393C12.4907 43.8436 12.2238 44.2343 11.7684 44.6986L18.9076 51.7009ZM21.5325 48.1263C22.2052 46.832 22.814 45.1211 22.65 43.1923L12.686 44.0394C12.6566 43.6935 12.7059 43.4613 12.7256 43.3855C12.7442 43.3137 12.7434 43.353 12.6592 43.515L21.5325 48.1263ZM22.65 43.1923C22.5005 41.4328 21.5613 39.6109 19.6736 38.5718C18.1625 37.74 16.6377 37.7543 15.7793 37.8273L16.6264 47.7913C16.5964 47.7939 16.4214 47.8077 16.1471 47.7708C15.8747 47.7341 15.3973 47.6328 14.8513 47.3322C14.2701 47.0123 13.7003 46.5129 13.2803 45.8256C12.8724 45.158 12.7261 44.511 12.686 44.0394L22.65 43.1923ZM15.7793 37.8273C14.2852 37.9543 12.8447 38.476 11.6126 39.0407L15.7796 48.1312C16.1355 47.9681 16.391 47.8734 16.5572 47.8219C16.7309 47.7681 16.7431 47.7814 16.6264 47.7913L15.7793 37.8273ZM11.5897 39.0513C10.1998 39.6969 8.91537 40.5152 7.75325 41.5077L14.2476 49.1118C14.6998 48.7257 15.2125 48.3947 15.8025 48.1206L11.5897 39.0513ZM15.8026 43.9174C15.7564 43.7579 15.6903 43.5495 15.6251 43.3472L6.10669 46.4131C6.13748 46.5087 6.16092 46.5824 6.17795 46.6368C6.19675 46.6968 6.20139 46.7131 6.19821 46.7021L15.8026 43.9174ZM15.738 43.7563C15.7201 43.6787 15.7144 43.6492 15.7154 43.6547C15.7161 43.6583 15.7214 43.6859 15.7284 43.731C15.732 43.7544 15.737 43.7879 15.7422 43.8295C15.7473 43.8702 15.754 43.9279 15.76 43.9985L5.79592 44.8456C5.83748 45.3344 5.95205 45.8228 5.99384 46.004L15.738 43.7563ZM15.76 43.9985C15.8137 44.6308 15.6998 45.3125 15.3935 45.9377C15.1044 46.5276 14.7359 46.8823 14.5203 47.0541L8.2884 39.2334C6.82506 40.3994 5.583 42.3411 5.79592 44.8456L15.76 43.9985ZM14.4364 47.1195C14.4188 47.1329 14.4629 47.0992 14.615 46.9948C14.7525 46.9005 14.9391 46.7751 15.1805 46.6155L9.66552 38.2737C9.17445 38.5983 8.696 38.9211 8.37229 39.168L14.4364 47.1195ZM15.2759 46.5508C15.7879 46.1951 16.089 45.9903 16.2231 45.9027L10.7533 37.5312C10.4851 37.7065 10.0761 37.9868 9.57009 38.3384L15.2759 46.5508ZM16.4879 45.7172C18.6289 44.1118 20.4711 42.3419 21.8883 40.3727L13.7718 34.5313C13.0853 35.4852 12.033 36.5586 10.4886 37.7167L16.4879 45.7172ZM21.8683 40.4003C23.3476 38.3741 24.4986 35.8269 24.2529 32.9366L14.2888 33.7837C14.2748 33.6187 14.3127 33.5646 14.2751 33.6712C14.2318 33.7943 14.1075 34.0713 13.7918 34.5037L21.8683 40.4003ZM24.2529 32.9366C24.1136 31.2979 23.3055 29.5688 21.6112 28.4559L16.1212 36.8141C15.6021 36.4732 15.1262 35.9874 14.7829 35.3722C14.449 34.7738 14.3247 34.2056 14.2888 33.7837L24.2529 32.9366ZM21.7869 28.5767C20.395 27.575 18.8474 27.3245 17.5421 27.4355L18.3892 37.3996C17.7974 37.4499 16.8502 37.3444 15.9455 36.6933L21.7869 28.5767ZM17.5421 27.4355C15.0383 27.6484 12.9909 29.0135 11.4948 30.3311L18.1041 37.8356C18.477 37.5072 18.7083 37.3654 18.7967 37.3189C18.8831 37.2734 18.7348 37.3702 18.3892 37.3996L17.5421 27.4355ZM11.5266 30.3033C9.99001 31.6337 8.65987 33.1706 7.53419 34.893L15.9049 40.3639C16.5427 39.3881 17.2658 38.5616 18.0723 37.8634L11.5266 30.3033ZM7.52938 34.9003C6.47363 36.5219 5.6114 38.245 5.15226 40.0392L14.8401 42.5183C14.945 42.1084 15.2317 41.398 15.9097 40.3566L7.52938 34.9003ZM13.652 37.8677C13.6806 37.8984 13.7634 37.9971 13.8428 38.1691C13.9245 38.3458 13.9724 38.5352 13.9873 38.7098L4.02319 39.5569C4.19436 41.5703 5.05628 43.3136 6.3404 44.6898L13.652 37.8677ZM13.9873 38.7098C13.9971 38.8261 13.9925 38.936 13.9786 39.0318C13.9649 39.1264 13.9447 39.1899 13.9342 39.2182C13.9155 39.2687 13.9423 39.1696 14.1378 38.9262L6.3431 32.6618C4.90294 34.4538 3.78913 36.8036 4.02319 39.5569L13.9873 38.7098ZM14.1616 38.8964C14.499 38.4699 15.1692 37.8743 16.4511 37.2357L11.9918 28.285C9.79475 29.3796 7.81091 30.8064 6.31934 32.6916L14.1616 38.8964ZM16.4511 37.2357C17.5906 36.668 18.8722 36.3049 20.3436 36.1798L19.4966 26.2158C16.8488 26.4409 14.3312 27.1195 11.9918 28.285L16.4511 37.2357ZM20.3436 36.1798C20.7204 36.1478 20.9357 36.1583 21.023 36.1675C21.1151 36.1771 20.986 36.1769 20.7333 36.0646L24.7929 26.9257C22.9993 26.129 21.0727 26.0818 19.4966 26.2158L20.3436 36.1798ZM20.7807 36.0854C20.5201 35.9728 20.0353 35.6991 19.6004 35.1324C19.1463 34.5407 18.954 33.8991 18.9108 33.3908L28.8749 32.5437C28.7738 31.3543 28.3642 30.1267 27.5336 29.0443C26.7221 27.9869 25.7014 27.3178 24.7455 26.9049L20.7807 36.0854ZM18.9108 33.3908C18.8689 32.8973 19.0258 32.6524 18.9657 32.7653C18.8905 32.9063 18.6436 33.2812 18.0252 33.8734L24.942 41.0954C26.9771 39.1464 29.1883 36.2305 28.8749 32.5437L18.9108 33.3908ZM18.0097 33.8884C16.7906 35.0661 14.8047 36.4496 11.831 37.9741L16.3928 46.8729C19.8365 45.1076 22.7652 43.1984 24.9576 41.0805L18.0097 33.8884ZM9.30963 43.8159L9.37897 44.055L18.9834 41.2703L18.9141 41.0311L9.30963 43.8159ZM16.3271 47.1787C17.2175 46.7556 18.0251 46.5453 18.7693 46.4821L17.9222 36.518C15.877 36.6919 13.9082 37.2566 12.0353 38.1465L16.3271 47.1787ZM18.7693 46.4821C18.9563 46.4662 18.9305 46.4899 18.7575 46.457C18.5718 46.4217 18.1701 46.3108 17.719 45.9824L23.6047 37.8979C21.6796 36.4964 19.4769 36.3858 17.9222 36.518L18.7693 46.4821ZM17.7978 46.0386C17.444 45.7914 17.1101 45.4358 16.8707 44.9922C16.6398 44.5644 16.5703 44.1923 16.5523 43.9802L26.5163 43.1331C26.3479 41.1517 25.4265 39.1699 23.5259 37.8417L17.7978 46.0386ZM16.5523 43.9802C16.5637 44.1145 16.5614 44.4343 16.242 45.0362L25.0754 49.7236C26.1358 47.7253 26.7173 45.4963 26.5163 43.1331L16.5523 43.9802ZM16.2203 45.0776C15.8348 45.8208 15.3301 46.4677 14.6808 47.0392L21.2874 54.546C22.857 53.1646 24.1353 51.5364 25.0972 49.6822L16.2203 45.0776ZM14.6808 47.0392C13.912 47.7158 13.0456 48.2959 12.066 48.7781L16.4818 57.7503C18.2303 56.8897 19.8374 55.8222 21.2874 54.546L14.6808 47.0392ZM12.0483 48.7868C11.1453 49.2357 10.4654 49.403 9.9798 49.4443L10.8269 59.4083C12.8063 59.24 14.7068 58.6326 16.4994 57.7415L12.0483 48.7868ZM9.9798 49.4443C9.12338 49.5171 8.5996 49.4375 8.31353 49.3548L5.53799 58.9619C7.26145 59.4599 9.05605 59.5589 10.8269 59.4083L9.9798 49.4443ZM8.26955 49.3423C8.26599 49.3414 8.27495 49.3436 8.29261 49.3517C8.31047 49.3599 8.33043 49.3708 8.34987 49.3838C8.36921 49.3968 8.38161 49.4075 8.38661 49.4121C8.39135 49.4165 8.38457 49.411 8.36795 49.3901L0.547228 55.622C1.83943 57.2436 3.54903 58.4072 5.58198 58.9744L8.26955 49.3423ZM8.36795 49.3901C8.438 49.478 8.45708 49.5395 8.45154 49.5226C8.44283 49.4959 8.40475 49.3638 8.39464 49.0836L-1.59886 49.4441C-1.5224 51.563 -0.93674 53.7597 0.547228 55.622L8.36795 49.3901ZM24.6682 44.3928L19.9324 42.789L19.9298 42.7965L24.6682 44.3928ZM28.5672 37.2253L24.6075 34.1724L24.6064 34.1738L28.5672 37.2253ZM34.3222 31.7131L37.1014 35.8696L37.1119 35.8625L34.3222 31.7131ZM42.9574 31.8365L40.1759 35.9914L48.8207 41.7787L47.9394 31.413L42.9574 31.8365ZM33.61 37.4581L37.5 40.5994L37.515 40.5808L37.5299 40.562L33.61 37.4581ZM29.8067 43.7355L34.3253 45.8761L34.3285 45.8694L34.3317 45.8627L29.8067 43.7355ZM31.3445 49.1422L27.909 45.5094L27.8939 45.5237L27.8788 45.5382L31.3445 49.1422ZM34.0905 45.993L30.1087 42.9689L30.097 42.9843L30.0855 42.9997L34.0905 45.993ZM36.7243 42.3878L40.8227 45.2519L40.8333 45.2367L40.8438 45.2215L36.7243 42.3878ZM38.9186 39.0895L43.1301 41.7846L38.9186 39.0895ZM39.9358 37.5084L43.7581 40.7317L43.9366 40.52L44.0907 40.2899L39.9358 37.5084ZM41.9334 34.2023L37.6627 31.6022L37.6558 31.6135L37.6489 31.6249L41.9334 34.2023ZM44.0687 30.7865L47.8911 34.0098L47.9573 33.9313L48.0202 33.8502L44.0687 30.7865ZM45.3437 29.355L48.6165 33.135L48.6715 33.0874L48.725 33.0382L45.3437 29.355ZM48.4233 29.2647L45.7729 33.5044L45.8159 33.5313L45.8595 33.5574L48.4233 29.2647ZM50.113 30.9832L53.556 34.6089L56.6891 31.6337L54.1996 28.1023L50.113 30.9832ZM46.6733 35.196L42.6653 32.2067L42.6529 32.2233L42.6406 32.2401L46.6733 35.196ZM44.7316 38.0073L40.5545 35.2593L40.5404 35.2806L40.5266 35.302L44.7316 38.0073ZM42.5621 41.5975L38.2248 39.1099L38.2181 39.1217L42.5621 41.5975ZM40.7378 45.5014L36.0354 43.8021L36.0261 43.8278L36.0172 43.8535L40.7378 45.5014ZM40.6639 49.8201L37.2217 53.4465L37.2764 53.4985L37.3327 53.5488L40.6639 49.8201ZM44.0914 49.2102L48.2503 51.9856L41.3079 45.0565L44.0914 49.2102ZM37.1221 45.0492L32.256 43.8995L32.2475 43.9357L32.2395 43.972L37.1221 45.0492ZM38.2191 41.5257L42.9105 43.2552L34.3968 38.3023L38.2191 41.5257ZM37.6368 42.4573L33.3721 39.8472L33.3653 39.8583L33.3585 39.8695L37.6368 42.4573ZM36.8825 43.673L32.7034 40.928L32.6406 41.0236L32.5823 41.1219L36.8825 43.673ZM36.017 45.0207L31.8443 42.266L31.8394 42.2733L31.8346 42.2807L36.017 45.0207ZM33.889 47.9458L29.9263 44.8967L29.9221 44.9021L33.889 47.9458ZM32.6627 49.3732L29.1479 45.817L29.1106 45.8539L29.074 45.8916L32.6627 49.3732ZM31.4178 50.5816L28.0169 46.9164L27.9886 46.9427L27.9607 46.9694L31.4178 50.5816ZM30.0876 51.6503L27.4183 47.4224L27.3853 47.4432L27.3527 47.4645L30.0876 51.6503ZM28.7729 52.3256L26.9356 47.6754L26.8412 47.7127L26.7484 47.7538L28.7729 52.3256ZM28.993 48.6316C28.9393 48.0001 29.0189 47.1396 29.4065 45.9891L19.9298 42.7965C19.1957 44.9757 18.8372 47.2234 19.0289 49.4786L28.993 48.6316ZM29.404 45.9967C30.0616 44.0548 31.0855 42.1493 32.5281 40.2768L24.6064 34.1738C22.5477 36.8459 20.9722 39.7188 19.9324 42.789L29.404 45.9967ZM32.527 40.2782C34.0135 38.3501 35.5468 36.909 37.1013 35.8695L31.543 27.5566C28.9553 29.2869 26.652 31.5205 24.6075 34.1724L32.527 40.2782ZM37.1119 35.8625C38.7546 34.758 39.8883 34.4203 40.5749 34.3619L39.7278 24.3978C36.814 24.6455 34.0616 25.8633 31.5324 27.5637L37.1119 35.8625ZM40.5749 34.3619C40.7818 34.3443 40.0118 34.4676 39.1045 33.7763C38.0962 33.008 37.9569 32.0434 37.9464 31.9195L47.9105 31.0724C47.7676 29.3917 47.0993 27.2959 45.1653 25.8223C43.3323 24.4256 41.24 24.2693 39.7278 24.3978L40.5749 34.3619ZM37.9464 31.9195L37.9754 32.2601L47.9394 31.413L47.9105 31.0724L37.9464 31.9195ZM45.7389 27.6817C43.9184 26.4629 41.9038 26.418 40.595 26.5293L41.4421 36.4934C41.5777 36.4818 41.5172 36.5019 41.3208 36.4689C41.1192 36.4351 40.6795 36.3286 40.1759 35.9914L45.7389 27.6817ZM40.595 26.5293C38.1931 26.7335 36.1525 27.9669 34.5892 29.2218C32.9512 30.5366 31.3184 32.2976 29.69 34.3543L37.5299 40.562C38.9107 38.8182 40.0173 37.6878 40.8489 37.0203C41.755 36.293 41.9142 36.4532 41.4421 36.4934L40.595 26.5293ZM29.7199 34.3168C28.0507 36.3839 26.5835 38.8394 25.2818 41.6083L34.3317 45.8627C35.3816 43.6292 36.4499 41.8998 37.5 40.5994L29.7199 34.3168ZM25.2881 41.5949C24.0554 44.1971 22.9955 47.1409 23.2285 49.8812L33.1925 49.0341C33.2047 49.1772 33.165 49.0038 33.3409 48.3732C33.5077 47.7754 33.8154 46.9526 34.3253 45.8761L25.2881 41.5949ZM23.2285 49.8812C23.3111 50.8531 23.6474 52.4957 25.03 53.8414C26.5423 55.3135 28.3911 55.5629 29.6758 55.4537L28.8288 45.4896C29.481 45.4342 30.8399 45.5415 32.005 46.6755C33.0403 47.6833 33.172 48.792 33.1925 49.0341L23.2285 49.8812ZM29.6758 55.4537C31.0754 55.3347 32.1755 54.7524 32.8462 54.3263C33.5737 53.864 34.233 53.3013 34.8101 52.7463L27.8788 45.5382C27.5801 45.8254 27.4528 45.9053 27.4829 45.8862C27.505 45.8721 27.6184 45.8014 27.8156 45.7224C28.01 45.6445 28.3578 45.5297 28.8288 45.4896L29.6758 55.4537ZM34.7799 52.7751C35.9275 51.6898 37.0301 50.4118 38.0955 48.9863L30.0855 42.9997C29.2736 44.086 28.5455 44.9075 27.909 45.5094L34.7799 52.7751ZM38.0723 49.0171C39.0621 47.7138 39.9795 46.4585 40.8227 45.2519L32.6258 39.5238C31.8671 40.6095 31.0286 41.7576 30.1087 42.9689L38.0723 49.0171ZM40.8438 45.2215C41.6703 44.0199 42.4329 42.8739 43.1301 41.7846L34.7071 36.3944C34.0777 37.378 33.3774 38.4309 32.6048 39.5541L40.8438 45.2215ZM43.1301 41.7846C43.4612 41.2672 43.7091 40.8804 43.8753 40.6221C43.959 40.492 44.0186 40.3998 44.0565 40.3415C44.0657 40.3273 44.0728 40.3164 44.078 40.3084C44.0836 40.2999 44.0856 40.2968 44.0851 40.2976C44.0848 40.2981 44.0828 40.3011 44.0796 40.3059C44.0767 40.3102 44.0703 40.3197 44.0615 40.3327C44.0547 40.3427 44.0357 40.3704 44.0102 40.4063C43.9976 40.4241 43.9744 40.4566 43.9444 40.4968C43.9246 40.5234 43.8547 40.6171 43.7581 40.7317L36.1135 34.2851C36.0164 34.4002 35.9459 34.4947 35.9253 34.5223C35.8945 34.5636 35.8704 34.5974 35.8566 34.6168C35.8289 34.6558 35.8072 34.6876 35.7969 34.7027C35.7746 34.7354 35.7555 34.7642 35.7449 34.7802C35.7215 34.8156 35.6956 34.8552 35.6713 34.8928C35.6207 34.9706 35.5512 35.0782 35.4654 35.2116C35.2925 35.4804 35.0393 35.8753 34.7071 36.3944L43.1301 41.7846ZM44.0907 40.2899C44.2381 40.0698 45.0141 38.7809 46.2179 36.7797L37.6489 31.6249C37.0125 32.6829 36.5296 33.4844 36.1992 34.0312C36.0337 34.3051 35.9087 34.5113 35.8228 34.6524C35.6941 34.8637 35.7185 34.8201 35.7809 34.7269L44.0907 40.2899ZM46.2042 36.8024C46.8459 35.7483 47.3343 34.9538 47.6745 34.4096C47.8459 34.1354 47.9686 33.9426 48.049 33.8192C48.0682 33.7897 48.083 33.7673 48.0938 33.7511C48.105 33.7343 48.1094 33.7279 48.1082 33.7297C48.1074 33.7308 48.104 33.7358 48.0983 33.7438C48.0928 33.7516 48.0832 33.7651 48.0701 33.783C48.0542 33.8046 47.9885 33.8942 47.8911 34.0098L40.2464 27.5631C39.972 27.8886 39.7219 28.2814 39.6713 28.3589C39.5404 28.5597 39.3795 28.8137 39.195 29.1088C38.8234 29.7033 38.3109 30.5374 37.6627 31.6022L46.2042 36.8024ZM48.0202 33.8502C48.2285 33.5814 48.3899 33.3879 48.5077 33.2556C48.6335 33.1144 48.6665 33.0917 48.6165 33.135L42.0708 25.575C41.3553 26.1945 40.6888 26.9857 40.1173 27.7228L48.0202 33.8502ZM48.725 33.0382C48.5071 33.2383 48.2283 33.4303 47.8937 33.5767C47.5595 33.723 47.2337 33.7958 46.9484 33.8201L46.1013 23.856C44.5532 23.9876 43.1169 24.6117 41.9623 25.6718L48.725 33.0382ZM46.9484 33.8201C46.8487 33.8285 46.6692 33.8294 46.4382 33.7775C46.2022 33.7245 45.9733 33.6297 45.7729 33.5044L51.0736 25.0249C49.5119 24.0487 47.779 23.7134 46.1013 23.856L46.9484 33.8201ZM45.8595 33.5574C45.6904 33.4564 45.6391 33.3913 45.6934 33.4465C45.7452 33.4992 45.8589 33.6266 46.0264 33.8641L54.1996 28.1023C53.422 26.9993 52.3797 25.8038 50.987 24.972L45.8595 33.5574ZM46.67 27.3575C45.6318 28.3433 44.243 30.0914 42.6653 32.2067L50.6813 38.1853C52.3296 35.9753 53.2338 34.9148 53.556 34.6089L46.67 27.3575ZM42.6406 32.2401C41.9803 33.1409 41.2845 34.1495 40.5545 35.2593L48.9087 40.7553C49.5674 39.7541 50.1661 38.8885 50.706 38.1518L42.6406 32.2401ZM40.5266 35.302C39.7935 36.4416 39.026 37.7129 38.2248 39.1099L46.8994 44.0851C47.6346 42.8032 48.3134 41.6811 48.9366 40.7125L40.5266 35.302ZM38.2181 39.1217C37.3395 40.6632 36.6058 42.2237 36.0354 43.8021L45.4402 47.2007C45.7954 46.2176 46.278 45.1754 46.9061 44.0733L38.2181 39.1217ZM36.0172 43.8535C35.4731 45.4122 35.0338 47.232 35.1893 49.0604L45.1533 48.2133C45.1654 48.3559 45.143 48.3473 45.1815 48.1338C45.2187 47.9281 45.2992 47.6056 45.4584 47.1493L36.0172 43.8535ZM35.1893 49.0604C35.3024 50.3918 35.7915 52.089 37.2217 53.4465L44.1061 46.1936C44.9677 47.0114 45.1284 47.9198 45.1533 48.2133L35.1893 49.0604ZM37.3327 53.5488C38.9054 54.9538 40.787 55.2687 42.2923 55.1407L41.4453 45.1766C41.6698 45.1576 42.0601 45.1568 42.5433 45.2925C43.0493 45.4348 43.5568 45.6998 43.9951 46.0914L37.3327 53.5488ZM42.2923 55.1407C44.1462 54.9831 45.7294 54.1313 46.8748 53.3638L41.3079 45.0565C41.1899 45.1356 41.0975 45.1914 41.0297 45.2292C40.9614 45.2673 40.9268 45.2824 40.9241 45.2835C40.9209 45.2849 40.962 45.267 41.0439 45.2447C41.126 45.2224 41.2622 45.1922 41.4453 45.1766L42.2923 55.1407ZM39.9324 46.4347C39.7115 46.7657 39.6064 46.8147 39.6791 46.7648C39.7193 46.7372 39.7957 46.6923 39.9061 46.6521C40.0177 46.6114 40.1335 46.5868 40.2412 46.5776L41.0883 56.5417C44.3802 56.2618 46.7313 54.2618 48.2503 51.9856L39.9324 46.4347ZM40.2412 46.5776C40.1888 46.5821 40.3298 46.562 40.5898 46.6374C40.8723 46.7194 41.171 46.879 41.4218 47.1077L34.6824 54.4956C36.5966 56.2418 38.956 56.723 41.0883 56.5417L40.2412 46.5776ZM41.4218 47.1077C41.6804 47.3436 41.8214 47.588 41.8847 47.7384C41.9401 47.8699 41.9149 47.8769 41.8983 47.6815L31.9343 48.5285C32.1042 50.5273 32.8071 52.7849 34.6824 54.4956L41.4218 47.1077ZM41.8983 47.6815C41.8548 47.1693 41.8877 46.6566 42.0046 46.1264L32.2395 43.972C31.9084 45.4728 31.8041 46.9973 31.9343 48.5285L41.8983 47.6815ZM41.9881 46.1989C42.1688 45.4341 42.4663 44.4601 42.9105 43.2552L33.5278 39.7961C32.9897 41.2557 32.5558 42.6306 32.256 43.8995L41.9881 46.1989ZM34.3968 38.3023C34.2722 38.4501 34.1827 38.5742 34.1571 38.6096C34.1179 38.664 34.0862 38.7101 34.0666 38.7389C34.027 38.797 33.9923 38.8502 33.9687 38.8866C33.9195 38.9626 33.8651 39.0489 33.8115 39.1346C33.7018 39.3101 33.5538 39.5502 33.3721 39.8472L41.9014 45.0673C42.0783 44.7784 42.2067 44.5703 42.291 44.4353C42.3345 44.3658 42.3566 44.3312 42.3634 44.3208C42.3678 44.3139 42.3559 44.3325 42.334 44.3647C42.3232 44.3805 42.2991 44.4157 42.2661 44.4614C42.2492 44.4848 42.2238 44.5196 42.1919 44.5615C42.1627 44.5998 42.1104 44.6672 42.0414 44.749L34.3968 38.3023ZM33.3585 39.8695C33.0167 40.4345 32.807 40.7703 32.7034 40.928L41.0617 46.4179C41.2762 46.0913 41.5693 45.6165 41.915 45.045L33.3585 39.8695ZM32.5823 41.1219C32.5099 41.2439 32.2863 41.5965 31.8443 42.266L40.1898 47.7753C40.6161 47.1296 40.9694 46.5837 41.1828 46.2241L32.5823 41.1219ZM31.8346 42.2807C31.439 42.8845 31.1688 43.2703 31.0051 43.4865L38.978 49.5224C39.343 49.0403 39.7564 48.4369 40.1994 47.7606L31.8346 42.2807ZM31.0051 43.4865C30.7524 43.8203 30.3941 44.2888 29.9263 44.8967L37.8517 50.9949C38.3253 50.3794 38.702 49.887 38.978 49.5224L31.0051 43.4865ZM29.9221 44.9021C29.5467 45.3914 29.2911 45.6755 29.1479 45.817L36.1775 52.9293C36.7576 52.356 37.3195 51.6885 37.8559 50.9895L29.9221 44.9021ZM29.074 45.8916C28.8057 46.1682 28.4568 46.5082 28.0169 46.9164L34.8188 54.2468C35.3478 53.7559 35.8289 53.2903 36.2514 52.8547L29.074 45.8916ZM27.9607 46.9694C27.6643 47.2531 27.4831 47.3815 27.4183 47.4224L32.7569 55.8781C33.5291 55.3906 34.2349 54.8065 34.875 54.1938L27.9607 46.9694ZM27.3527 47.4645C27.2496 47.5319 27.1145 47.6047 26.9356 47.6754L30.6101 56.9758C31.3795 56.6719 32.1208 56.2945 32.8225 55.836L27.3527 47.4645ZM26.7484 47.7538C26.7309 47.7615 26.8233 47.7183 27.0077 47.7026L27.8548 57.6667C28.915 57.5766 29.9017 57.294 30.7974 56.8974L26.7484 47.7538ZM27.0077 47.7026C27.0857 47.696 27.3622 47.6873 27.7416 47.8195C28.1418 47.959 28.4779 48.1938 28.7135 48.4463L21.4019 55.2684C23.1992 57.1947 25.5825 57.8599 27.8548 57.6667L27.0077 47.7026ZM28.7135 48.4463C28.9267 48.6747 29.013 48.8712 29.0351 48.9304C29.0527 48.9776 29.0156 48.8983 28.993 48.6316L19.0289 49.4786C19.1894 51.367 19.7799 53.53 21.4019 55.2684L28.7135 48.4463ZM64.454 42.3091L59.9292 40.1816L59.9251 40.1904L59.921 40.1991L64.454 42.3091ZM67.1505 37.4245L62.8951 34.7994L62.891 34.806L67.1505 37.4245ZM71.5267 30.6819L67.3875 27.8772L67.3819 27.8854L67.3763 27.8937L71.5267 30.6819ZM75.157 25.2523L79.3595 27.9613L71.7989 21.5479L75.157 25.2523ZM62.3254 29.0874L62.5789 24.0938L57.7311 23.8478L57.3415 28.6861L62.3254 29.0874ZM69.8749 27.392L67.6932 22.8931L67.6777 22.9006L67.6624 22.9082L69.8749 27.392ZM75.7021 23.8829L78.7905 27.815L79.3783 27.3534L79.8054 26.7401L75.7021 23.8829ZM77.5962 21.6637L80.7858 25.5142L80.8214 25.4847L80.8564 25.4545L77.5962 21.6637ZM80.7741 21.0015L85.1643 23.3945L88.3745 17.5052L81.8136 16.1107L80.7741 21.0015ZM70.2283 39.9071L65.8432 37.5049L65.8388 37.5128L65.8345 37.5207L70.2283 39.9071ZM65.546 49.1014L63.0617 53.4406L67.7248 56.1103L70.0525 51.2674L65.546 49.1014ZM68.6029 45.6317C68.6063 45.6722 68.5693 45.3165 68.987 44.4191L59.921 40.1991C59.0404 42.091 58.4479 44.2328 58.6388 46.4788L68.6029 45.6317ZM68.9788 44.4366C69.5399 43.2432 70.3396 41.7843 71.4101 40.0429L62.891 34.806C61.6941 36.7531 60.6961 38.5506 59.9292 40.1816L68.9788 44.4366ZM71.406 40.0496C72.5092 38.2612 73.9298 36.0712 75.6772 33.4701L67.3763 27.8937C65.5857 30.5591 64.0888 32.8642 62.8951 34.7994L71.406 40.0496ZM75.666 33.4866C77.4483 30.8563 78.6891 29.0014 79.3595 27.9613L70.9545 22.5433C70.3549 23.4734 69.1756 25.2382 67.3875 27.8772L75.666 33.4866ZM71.7989 21.5479C70.2333 22.967 68.6459 24.1478 67.0397 25.1077L72.1695 33.6917C74.3873 32.3663 76.5015 30.7821 78.5151 28.9568L71.7989 21.5479ZM67.0397 25.1077C65.5131 26.02 64.5274 26.2834 64.002 26.3281L64.8491 36.2921C67.405 36.0748 69.872 35.0646 72.1695 33.6917L67.0397 25.1077ZM64.002 26.3281C63.8098 26.3444 64.5667 26.2182 65.5317 26.8162C66.0667 27.1477 66.5341 27.6267 66.8577 28.2106C67.1662 28.7671 67.2606 29.2663 67.2866 29.5722L57.3226 30.4193C57.4693 32.1448 58.2983 34.0982 60.2641 35.3164C61.9361 36.3525 63.7114 36.3888 64.8491 36.2921L64.002 26.3281ZM67.2866 29.5722C67.2928 29.6442 67.2942 29.6934 67.2947 29.7134C67.2951 29.7346 67.2947 29.7395 67.2951 29.7249C67.2954 29.711 67.2963 29.6843 67.2985 29.6433C67.3008 29.6026 67.3042 29.5513 67.3093 29.4887L57.3415 28.6861C57.3032 29.1625 57.2693 29.7921 57.3226 30.4193L67.2866 29.5722ZM62.0719 34.081C63.0321 34.1297 64.0007 34.11 64.975 34.0272L64.128 24.0631C63.5779 24.1099 63.0624 24.1184 62.5789 24.0938L62.0719 34.081ZM64.975 34.0272C67.3704 33.8236 69.7613 33.0237 72.0875 31.8758L67.6624 22.9082C66.0693 23.6943 64.9112 23.9966 64.128 24.0631L64.975 34.0272ZM72.0567 31.8909C74.6391 30.6385 76.9126 29.29 78.7905 27.815L72.6137 19.9507C71.4598 20.857 69.8485 21.8479 67.6932 22.8931L72.0567 31.8909ZM79.8054 26.7401C80.0932 26.3268 80.3293 26.0219 80.5138 25.8057C80.7049 25.5818 80.7958 25.5058 80.7858 25.5142L74.4065 17.8132C73.3431 18.6941 72.4083 19.8633 71.5989 21.0257L79.8054 26.7401ZM80.8564 25.4545C80.7951 25.5073 80.6673 25.6024 80.4693 25.6895C80.2665 25.7787 80.0413 25.8368 79.8147 25.856L78.9676 15.892C77.1569 16.0459 75.5887 16.7953 74.3359 17.8728L80.8564 25.4545ZM79.8147 25.856C79.7286 25.8634 79.6634 25.8642 79.6229 25.8637C79.5821 25.8632 79.5596 25.8612 79.5578 25.861C79.5558 25.8608 79.5696 25.862 79.6005 25.8669C79.6314 25.8718 79.6757 25.8797 79.7347 25.8922L81.8136 16.1107C80.9986 15.9375 80.009 15.8034 78.9676 15.892L79.8147 25.856ZM76.384 18.6085C75.8796 19.5337 74.2755 22.4067 71.5439 27.2751L80.265 32.1682C82.9807 27.3281 84.623 24.3876 85.1643 23.3945L76.384 18.6085ZM71.5439 27.2751C68.8208 32.1286 66.9173 35.544 65.8432 37.5049L74.6135 42.3092C75.6604 40.3981 77.541 37.0233 80.265 32.1682L71.5439 27.2751ZM65.8345 37.5207C64.2644 40.4117 62.6661 43.551 61.0395 46.9354L70.0525 51.2674C71.6182 48.0098 73.1415 45.0195 74.6221 42.2934L65.8345 37.5207ZM68.0302 44.7622C68.0684 44.784 68.2503 44.9057 68.4157 45.1673C68.4914 45.2872 68.5408 45.4013 68.5704 45.4941C68.5992 45.5844 68.6032 45.6356 68.6029 45.6317L58.6388 46.4788C58.8911 49.4455 60.4417 51.9405 63.0617 53.4406L68.0302 44.7622ZM82.8447 40.7457L78.3199 38.6182L78.3158 38.6269L78.3117 38.6357L82.8447 40.7457ZM85.5412 35.861L81.2857 33.2359L81.2816 33.2426L85.5412 35.861ZM89.9174 29.1184L85.7781 26.3137L85.7726 26.322L85.767 26.3303L89.9174 29.1184ZM93.5477 23.6889L97.7502 26.3979L90.1896 19.9844L93.5477 23.6889ZM80.7161 27.524L80.9696 22.5304L76.1218 22.2843L75.7322 27.1227L80.7161 27.524ZM88.2656 25.8286L86.0839 21.3297L86.0684 21.3372L86.053 21.3448L88.2656 25.8286ZM94.0928 22.3194L97.1812 26.2516L97.769 25.7899L98.196 25.1766L94.0928 22.3194ZM95.9868 20.1002L99.1765 23.9507L99.2121 23.9212L99.2471 23.8911L95.9868 20.1002ZM99.1648 19.438L103.555 21.831L106.765 15.9417L100.204 14.5473L99.1648 19.438ZM88.619 38.3436L84.2338 35.9414L84.2295 35.9493L84.2252 35.9573L88.619 38.3436ZM83.9367 47.5379L81.4524 51.8771L86.1155 54.5468L88.4432 49.7039L83.9367 47.5379ZM86.9936 44.0683C86.997 44.1087 86.96 43.753 87.3777 42.8557L78.3117 38.6357C77.4311 40.5276 76.8386 42.6693 77.0295 44.9153L86.9936 44.0683ZM87.3695 42.8731C87.9306 41.6797 88.7303 40.2208 89.8008 38.4795L81.2816 33.2426C80.0848 35.1896 79.0868 36.9872 78.3199 38.6182L87.3695 42.8731ZM89.7966 38.4861C90.8999 36.6977 92.3205 34.5077 94.0679 31.9066L85.767 26.3303C83.9764 28.9957 82.4795 31.3007 81.2858 33.2359L89.7966 38.4861ZM94.0567 31.9231C95.839 29.2928 97.0798 27.4379 97.7502 26.3979L89.3452 20.9799C88.7456 21.9099 87.5663 23.6747 85.7781 26.3137L94.0567 31.9231ZM90.1896 19.9844C88.624 21.4036 87.0366 22.5843 85.4304 23.5442L90.5602 32.1282C92.778 30.8029 94.8922 29.2187 96.9058 27.3933L90.1896 19.9844ZM85.4304 23.5442C83.9038 24.4565 82.9181 24.7199 82.3927 24.7646L83.2397 34.7287C85.7957 34.5114 88.2627 33.5012 90.5602 32.1282L85.4304 23.5442ZM82.3927 24.7646C82.2005 24.7809 82.9574 24.6548 83.9224 25.2528C84.4574 25.5843 84.9248 26.0632 85.2484 26.6472C85.5569 27.2037 85.6513 27.7028 85.6773 28.0088L75.7133 28.8558C75.86 30.5814 76.689 32.5347 78.6548 33.7529C80.3268 34.789 82.1021 34.8254 83.2397 34.7287L82.3927 24.7646ZM85.6773 28.0088C85.6834 28.0808 85.6849 28.1299 85.6854 28.1499C85.6858 28.1712 85.6854 28.176 85.6857 28.1615C85.6861 28.1475 85.687 28.1208 85.6892 28.0798C85.6915 28.0391 85.6949 27.9879 85.7 27.9252L75.7322 27.1227C75.6939 27.5991 75.6599 28.2286 75.7133 28.8558L85.6773 28.0088ZM80.4626 32.5175C81.4228 32.5663 82.3913 32.5466 83.3657 32.4638L82.5186 22.4997C81.9686 22.5465 81.4531 22.5549 80.9696 22.5304L80.4626 32.5175ZM83.3657 32.4638C85.7611 32.2601 88.152 31.4602 90.4782 30.3124L86.053 21.3448C84.46 22.1309 83.3019 22.4331 82.5186 22.4997L83.3657 32.4638ZM90.4474 30.3274C93.0298 29.0751 95.3033 27.7265 97.1812 26.2516L91.0044 18.3872C89.8505 19.2936 88.2392 20.2844 86.0839 21.3297L90.4474 30.3274ZM98.196 25.1766C98.4838 24.7633 98.72 24.4584 98.9045 24.2422C99.0956 24.0183 99.1865 23.9424 99.1765 23.9507L92.7972 16.2497C91.7337 17.1307 90.799 18.2998 89.9896 19.4622L98.196 25.1766ZM99.2471 23.8911C99.1858 23.9438 99.058 24.0389 98.86 24.1261C98.6572 24.2152 98.432 24.2733 98.2054 24.2926L97.3583 14.3285C95.5476 14.4825 93.9794 15.2319 92.7266 16.3094L99.2471 23.8911ZM98.2054 24.2926C98.1193 24.2999 98.0541 24.3008 98.0135 24.3003C97.9728 24.2997 97.9503 24.2977 97.9485 24.2975C97.9465 24.2974 97.9603 24.2986 97.9912 24.3035C98.0221 24.3083 98.0664 24.3162 98.1253 24.3288L100.204 14.5473C99.3893 14.374 98.3997 14.24 97.3583 14.3285L98.2054 24.2926ZM94.7747 17.045C94.2703 17.9703 92.6662 20.8432 89.9346 25.7116L98.6557 30.6048C101.371 25.7647 103.014 22.8241 103.555 21.831L94.7747 17.045ZM89.9346 25.7116C87.2115 30.5652 85.308 33.9806 84.2338 35.9414L93.0042 40.7458C94.051 38.8347 95.9317 35.4598 98.6557 30.6048L89.9346 25.7116ZM84.2252 35.9573C82.6551 38.8483 81.0568 41.9875 79.4302 45.372L88.4432 49.7039C90.0089 46.4464 91.5322 43.4561 93.0128 40.7299L84.2252 35.9573ZM86.4209 43.1988C86.4591 43.2206 86.641 43.3422 86.8064 43.6039C86.8821 43.7237 86.9315 43.8378 86.9611 43.9307C86.9899 44.021 86.9939 44.0722 86.9936 44.0683L77.0295 44.9153C77.2817 47.8821 78.8324 50.3771 81.4524 51.8771L86.4209 43.1988ZM108.481 33.9108L104.241 31.2605L104.238 31.2648L108.481 33.9108ZM114.969 26.9397L117.944 30.9588L117.95 30.954L114.969 26.9397ZM123.206 22.6621L124.686 27.4381L127.77 26.4825L128.168 23.2789L123.206 22.6621ZM107.836 11.9138L103.389 9.62805L111.423 15.3968L107.836 11.9138ZM111.572 8.01881L114.195 12.2759L114.21 12.2663L114.226 12.2567L111.572 8.01881ZM127.255 22.7345L122.32 21.9289L122.318 21.9412L122.316 21.9534L127.255 22.7345ZM125.494 29.4017L120.825 27.613L125.494 29.4017ZM122.552 35.4343L118.267 32.858L118.263 32.865L122.552 35.4343ZM118.86 40.4281L122.523 43.8317L122.525 43.8296L118.86 40.4281ZM114.716 43.8432L112.145 39.5544L112.136 39.5599L112.127 39.5654L114.716 43.8432ZM107.523 44.5527L104.164 48.256L104.186 48.2758L104.208 48.2952L107.523 44.5527ZM115.395 41.4578L111.553 38.2582L111.543 38.2703L111.533 38.2824L115.395 41.4578ZM118.707 36.3247L114.262 34.0366L114.257 34.0468L118.707 36.3247ZM123.003 23.733L127.963 24.3659L129.116 15.326L120.872 19.2098L123.003 23.733ZM116.791 28.4755L120.408 31.9275L120.415 31.9202L120.422 31.9128L116.791 28.4755ZM112.11 35.0969L116.632 37.2301L116.636 37.223L116.639 37.2158L112.11 35.0969ZM110.937 38.3084L106.142 36.8944L106.134 36.9216L106.126 36.9488L110.937 38.3084ZM111.284 41.2927C111.181 40.0759 111.487 38.5387 112.723 36.5568L104.238 31.2648C102.139 34.6302 100.993 38.2967 101.32 42.1398L111.284 41.2927ZM112.721 36.5612C114.059 34.4207 115.786 32.5558 117.944 30.9588L111.995 22.9206C108.866 25.236 106.268 28.0185 104.241 31.2605L112.721 36.5612ZM117.95 30.954C120.207 29.2782 122.452 28.1305 124.686 27.4381L121.726 17.8862C118.294 18.9496 115.048 20.6536 111.989 22.9254L117.95 30.954ZM128.168 23.2789C128.426 21.2019 128.46 19.0943 128.279 16.963L118.315 17.81C118.439 19.2789 118.413 20.6885 118.244 22.0454L128.168 23.2789ZM128.279 16.963C127.964 13.2649 126.872 9.63367 124.221 7.01661L117.195 14.1322C117.469 14.4028 118.102 15.313 118.315 17.81L128.279 16.963ZM124.221 7.01661C121.558 4.38654 118.132 3.42319 114.564 3.72651L115.411 13.6906C116.546 13.5941 116.934 13.8746 117.195 14.1322L124.221 7.01661ZM114.564 3.72651C110.582 4.06504 107.022 5.57398 104.249 8.43075L111.423 15.3968C112.314 14.479 113.522 13.8511 115.411 13.6906L114.564 3.72651ZM112.283 14.1995C112.61 13.5628 113.171 12.9067 114.195 12.2759L108.95 3.76174C106.59 5.21542 104.66 7.15592 103.389 9.62805L112.283 14.1995ZM114.226 12.2567C115.257 11.6107 116.314 11.2616 117.451 11.165L116.604 1.20093C113.848 1.43516 111.268 2.31003 108.919 3.78096L114.226 12.2567ZM117.451 11.165C119.777 10.9672 120.691 11.5083 121.089 11.8747C121.569 12.3167 122.331 13.4593 122.572 16.2965L132.536 15.4494C132.181 11.2807 130.89 7.30529 127.862 4.51729C124.751 1.65362 120.7 0.852718 116.604 1.20093L117.451 11.165ZM122.572 16.2965C122.722 18.0591 122.646 19.9325 122.32 21.9289L132.19 23.54C132.637 20.799 132.761 18.098 132.536 15.4494L122.572 16.2965ZM122.316 21.9534C121.996 23.9813 121.495 25.8642 120.825 27.613L130.163 31.1905C131.097 28.7518 131.771 26.1899 132.194 23.5155L122.316 21.9534ZM120.825 27.613C120.128 29.4325 119.276 31.1799 118.267 32.858L126.837 38.0107C128.147 35.8327 129.256 33.5584 130.163 31.1905L120.825 27.613ZM118.263 32.865C117.271 34.5206 116.244 35.8975 115.196 37.0266L122.525 43.8296C124.111 42.1213 125.545 40.1689 126.841 38.0037L118.263 32.865ZM115.198 37.0245C114.177 38.1223 113.156 38.9486 112.145 39.5544L117.286 48.132C119.197 46.9866 120.939 45.5361 122.523 43.8317L115.198 37.0245ZM112.127 39.5654C111.18 40.1387 110.518 40.3091 110.106 40.3442L110.953 50.3082C113.233 50.1144 115.362 49.2962 117.304 48.121L112.127 39.5654ZM110.106 40.3442C109.879 40.3634 109.887 40.3311 110.051 40.3733C110.242 40.4225 110.544 40.5487 110.839 40.8101L104.208 48.2952C106.279 50.1304 108.824 50.4892 110.953 50.3082L110.106 40.3442ZM110.883 40.8493C111.098 41.0449 111.222 41.2517 111.28 41.3846C111.329 41.4994 111.301 41.4939 111.284 41.2927L101.32 42.1398C101.499 44.2449 102.259 46.5276 104.164 48.256L110.883 40.8493ZM105.542 42.2219C105.643 43.4199 106.01 45.219 107.399 46.7079C108.988 48.4102 111.06 48.829 112.726 48.6873L111.879 38.7233C112.132 38.7018 112.588 38.7031 113.145 38.8855C113.734 39.0782 114.28 39.4234 114.711 39.8858C115.507 40.739 115.52 41.5392 115.506 41.3748L105.542 42.2219ZM112.726 48.6873C114.387 48.5462 115.728 47.8265 116.685 47.1311C117.658 46.4235 118.512 45.5403 119.257 44.6331L111.533 38.2824C111.33 38.5288 111.163 38.7104 111.032 38.8399C110.899 38.9709 110.823 39.0293 110.805 39.042C110.786 39.056 110.86 38.9987 111.026 38.9273C111.197 38.8541 111.488 38.7566 111.879 38.7233L112.726 48.6873ZM119.237 44.6573C120.703 42.8975 122.002 40.863 123.158 38.6026L114.257 34.0468C113.368 35.7826 112.459 37.1702 111.553 38.2582L119.237 44.6573ZM123.153 38.6128C124.306 36.3725 125.316 33.9934 126.188 31.4819L116.741 28.2028C116.012 30.303 115.184 32.2456 114.262 34.0367L123.153 38.6128ZM126.188 31.4819C127.063 28.9603 127.681 26.5752 127.963 24.3659L118.043 23.1001C117.874 24.4247 117.466 26.1125 116.741 28.2028L126.188 31.4819ZM120.872 19.2098C118.09 20.5205 115.529 22.535 113.16 25.0382L120.422 31.9128C122.189 30.046 123.77 28.8988 125.134 28.2562L120.872 19.2098ZM113.173 25.0235C110.805 27.505 108.904 30.1514 107.581 32.9781L116.639 37.2158C117.418 35.5515 118.636 33.7836 120.408 31.9275L113.173 25.0235ZM107.588 32.9637C107.041 34.1222 106.566 35.4532 106.142 36.8944L115.733 39.7224C116.069 38.5834 116.376 37.7734 116.632 37.2301L107.588 32.9637ZM106.126 36.9488C105.643 38.6592 105.39 40.4402 105.542 42.2219L115.506 41.3748C115.481 41.0807 115.504 40.535 115.749 39.668L106.126 36.9488ZM124.29 41.7551L129.073 43.2122L129.108 43.0991L129.137 42.9846L124.29 41.7551ZM124.934 40.1078L120.469 37.8574L120.448 37.8994L120.428 37.9418L124.934 40.1078ZM125.817 38.391L130.237 40.7288L130.256 40.6938L130.274 40.6585L125.817 38.391ZM127.024 36.1568L122.663 33.7116L122.658 33.7199L122.653 33.7283L127.024 36.1568ZM128.299 33.8676L123.928 31.4408L123.924 31.4486L123.919 31.4565L128.299 33.8676ZM129.613 31.4527L125.233 29.0416L125.205 29.0929L125.178 29.1449L129.613 31.4527ZM131.977 26.4004L127.279 24.6899L127.269 24.716L127.26 24.7422L131.977 26.4004ZM132.642 24.1386L137.51 25.2824L137.513 25.2681L137.516 25.2536L132.642 24.1386ZM132.762 21.5068L132.534 16.512L125.309 16.8417L128.169 23.484L132.762 21.5068ZM136.713 27.3454L132.141 25.3199L136.713 27.3454ZM133.83 32.3439L129.681 29.5533L122.645 40.0148L134.939 37.2194L133.83 32.3439ZM139.77 30.7363L141.564 35.4035L142.931 34.8781L143.798 33.6983L139.77 30.7363ZM142.877 25.4982L147.301 27.828L147.305 27.8208L147.309 27.8136L142.877 25.4982ZM144.902 20.2051L145.031 15.2068L140.331 15.0853L139.921 19.7688L144.902 20.2051ZM147.65 20.8291L145.464 25.3259L145.485 25.336L145.506 25.3459L147.65 20.8291ZM148.128 25.2968L143.685 23.0041L143.68 23.0127L143.676 23.0213L148.128 25.2968ZM143.247 33.0135L139.058 30.2827L139.054 30.2891L143.247 33.0135ZM140.948 36.8107L136.538 34.4534L136.517 34.4934L136.496 34.5337L140.948 36.8107ZM144.529 39.7405L141.365 35.8692L141.355 35.8773L141.345 35.8854L144.529 39.7405ZM148.482 35.8027L152.324 39.0031L152.333 38.9917L152.343 38.9803L148.482 35.8027ZM151.729 31.6308L155.775 34.5694L155.784 34.556L155.794 34.5425L151.729 31.6308ZM153.547 28.8055L155.708 24.2966L151.199 22.1356L149.038 26.6446L153.547 28.8055ZM153.656 30.6584L157.943 33.232L157.98 33.1692L158.016 33.1054L153.656 30.6584ZM152.564 32.2214L148.545 29.2459L148.525 29.2732L148.505 29.3007L152.564 32.2214ZM150.196 35.2159L146.352 32.0194L146.351 32.0197L150.196 35.2159ZM146.991 38.7227L143.471 35.1713L146.991 38.7227ZM143.318 41.6322L140.653 37.4016L140.643 37.4079L140.633 37.4143L143.318 41.6322ZM137.162 42.425L133.994 46.2937L134.021 46.316L134.049 46.3379L137.162 42.425ZM136.722 36.6799L132.058 34.8787L132.053 34.8913L132.048 34.9039L136.722 36.6799ZM139.319 31.7792L143.555 34.4356L150.441 23.4548L137.965 26.9662L139.319 31.7792ZM133.12 33.5068L131.996 28.6348L130.196 29.0501L129.098 30.5363L133.12 33.5068ZM129.02 39.4663L124.826 36.7442L124.823 36.7488L129.02 39.4663ZM125.917 44.7531L124.678 49.597L128.641 50.6112L130.42 46.927L125.917 44.7531ZM129.12 42.4226C129.144 42.7016 129.125 42.9126 129.108 43.0334C129.091 43.1549 129.071 43.2177 129.073 43.2122L119.507 40.2981C119.265 41.0915 119.058 42.1225 119.156 43.2697L129.12 42.4226ZM129.137 42.9846C129.128 43.0196 129.136 42.9764 129.19 42.8382C129.242 42.7053 129.323 42.5192 129.441 42.2737L120.428 37.9418C120.044 38.7405 119.671 39.6296 119.444 40.5257L129.137 42.9846ZM129.399 42.3581C129.725 41.7118 130.004 41.1703 130.237 40.7288L121.397 36.0532C121.124 36.5696 120.814 37.1725 120.469 37.8574L129.399 42.3581ZM130.274 40.6585C130.482 40.2484 130.848 39.5693 131.395 38.5853L122.653 33.7283C122.095 34.733 121.656 35.5434 121.361 36.1236L130.274 40.6585ZM131.385 38.6019C131.954 37.5873 132.387 36.8105 132.68 36.2788L123.919 31.4565C123.646 31.953 123.228 32.7023 122.663 33.7116L131.385 38.6019ZM132.671 36.2945C133.283 35.1924 133.749 34.3373 134.049 33.7606L125.178 29.1449C124.944 29.5936 124.534 30.3485 123.928 31.4408L132.671 36.2945ZM133.994 33.8639C134.343 33.2298 134.795 32.3302 135.33 31.2255L126.33 26.8668C125.809 27.9427 125.45 28.6475 125.233 29.0416L133.994 33.8639ZM135.33 31.2255C135.892 30.0648 136.367 28.9899 136.694 28.0586L127.26 24.7422C127.114 25.1579 126.824 25.8468 126.33 26.8668L135.33 31.2255ZM136.675 28.1108C137.003 27.2107 137.279 26.2651 137.51 25.2824L127.775 22.9948C127.622 23.6456 127.454 24.2078 127.279 24.6899L136.675 28.1108ZM137.516 25.2536C137.778 24.1096 137.943 22.8469 137.834 21.5656L127.87 22.4127C127.865 22.3587 127.872 22.3792 127.861 22.492C127.85 22.6033 127.824 22.7778 127.768 23.0236L137.516 25.2536ZM137.834 21.5656C137.81 21.2924 137.74 20.4255 137.354 19.5295L128.169 23.484C128.068 23.2495 128.007 23.0531 127.971 22.9245C127.935 22.7914 127.912 22.6846 127.899 22.6154C127.886 22.5444 127.879 22.4915 127.875 22.4619C127.871 22.4314 127.87 22.4141 127.87 22.4127L137.834 21.5656ZM132.99 26.5016C133.617 26.4729 134.002 26.4991 134.199 26.5269C134.291 26.54 134.302 26.5478 134.251 26.5323C134.201 26.5171 134.053 26.4679 133.851 26.3521L138.815 17.6714C136.787 16.5115 134.361 16.4285 132.534 16.512L132.99 26.5016ZM133.851 26.3521C133.531 26.1694 133.168 25.856 132.894 25.403C132.63 24.9666 132.563 24.5896 132.548 24.4161L142.512 23.5691C142.312 21.2105 141.118 18.9882 138.815 17.6714L133.851 26.3521ZM132.548 24.4161C132.525 24.1439 132.573 24.0701 132.522 24.2788C132.474 24.4742 132.366 24.8139 132.141 25.3199L141.284 29.3709C142.009 27.7348 142.692 25.6794 142.512 23.5691L132.548 24.4161ZM132.141 25.3199C131.61 26.5199 131.109 27.4297 130.66 28.098L138.958 33.6791C139.813 32.407 140.582 30.9546 141.284 29.3709L132.141 25.3199ZM130.66 28.098L129.681 29.5533L137.979 35.1344L138.958 33.6791L130.66 28.098ZM134.939 37.2194C137.795 36.57 140.098 35.9669 141.564 35.4035L137.976 26.0692C137.259 26.3447 135.602 26.8134 132.721 27.4683L134.939 37.2194ZM143.798 33.6983C144.845 32.2743 146.02 30.2611 147.301 27.828L138.453 23.1685C137.231 25.4893 136.334 26.9681 135.742 27.7744L143.798 33.6983ZM147.309 27.8136C148.558 25.4223 149.688 22.8699 149.883 20.6415L139.921 19.7688C139.93 19.6711 139.916 19.9006 139.651 20.5937C139.405 21.2367 139.016 22.0917 138.446 23.1829L147.309 27.8136ZM144.773 25.2035C145.203 25.2146 145.399 25.2944 145.464 25.3259L149.836 16.3322C148.299 15.5852 146.664 15.249 145.031 15.2068L144.773 25.2035ZM145.506 25.3459C145.329 25.2617 144.936 25.0303 144.574 24.5413C144.196 24.0292 144.034 23.4796 143.997 23.0508L153.961 22.2037C153.723 19.395 152.002 17.3604 149.795 16.3123L145.506 25.3459ZM143.997 23.0508C143.982 22.8717 143.983 22.7211 143.989 22.6057C143.995 22.4901 144.006 22.3996 144.016 22.3381C144.035 22.2207 144.053 22.1744 144.04 22.2137C144.029 22.2496 143.999 22.3347 143.938 22.4749C143.878 22.6135 143.796 22.789 143.685 23.0041L152.571 27.5896C152.957 26.8414 153.313 26.0508 153.567 25.2514C153.804 24.5087 154.065 23.4246 153.961 22.2037L143.997 23.0508ZM143.676 23.0213C143.176 23.9987 142.577 25.0077 141.87 26.048L150.14 31.6693C151.06 30.3171 151.875 28.9515 152.58 27.5724L143.676 23.0213ZM141.87 26.048C141.035 27.2771 140.097 28.6897 139.058 30.2827L147.435 35.7442C148.448 34.1899 149.35 32.8326 150.14 31.6693L141.87 26.048ZM139.054 30.2891C138.01 31.8963 137.156 33.2971 136.538 34.4534L145.357 39.168C145.782 38.3735 146.461 37.2428 147.439 35.7378L139.054 30.2891ZM136.496 34.5337C135.616 36.2555 134.658 38.5667 134.859 40.9302L144.823 40.0831C144.842 40.3041 144.824 40.4434 144.82 40.475C144.815 40.5082 144.818 40.4736 144.852 40.3604C144.923 40.122 145.082 39.7071 145.399 39.0877L136.496 34.5337ZM134.859 40.9302C134.951 42.0102 135.345 43.7264 136.844 45.0755C138.405 46.4803 140.24 46.6668 141.458 46.5633L140.611 36.5992C141.1 36.5577 142.371 36.5962 143.534 37.6427C144.635 38.6336 144.797 39.7815 144.823 40.0831L134.859 40.9302ZM141.458 46.5633C143.983 46.3487 146.144 44.8913 147.713 43.5956L141.345 35.8854C140.826 36.3145 140.475 36.5365 140.284 36.6373C140.075 36.7469 140.207 36.6335 140.611 36.5992L141.458 46.5633ZM147.693 43.6118C149.359 42.2503 150.902 40.7101 152.324 39.0031L144.641 32.6023C143.602 33.8486 142.509 34.9337 141.365 35.8692L147.693 43.6118ZM152.343 38.9803C153.622 37.4254 154.769 35.9543 155.775 34.5694L147.684 28.6921C146.818 29.8839 145.8 31.1941 144.622 32.625L152.343 38.9803ZM155.794 34.5425C156.721 33.2488 157.568 31.9859 158.056 30.9664L149.038 26.6446C149.043 26.6356 149.021 26.6819 148.954 26.7961C148.891 26.9058 148.801 27.0525 148.68 27.2404C148.437 27.6188 148.102 28.1081 147.665 28.719L155.794 34.5425ZM151.386 33.3144C150.896 33.0795 150.291 32.6588 149.799 31.962C149.301 31.2568 149.091 30.5131 149.039 29.8993L159.003 29.0523C158.82 26.8977 157.521 25.1653 155.708 24.2966L151.386 33.3144ZM149.039 29.8993C148.983 29.2386 149.103 28.7511 149.172 28.528C149.243 28.2964 149.311 28.1841 149.296 28.2115L158.016 33.1054C158.441 32.3482 159.158 30.8715 159.003 29.0523L149.039 29.8993ZM149.369 28.0848C149.372 28.0807 149.356 28.1065 149.314 28.1701C149.274 28.2311 149.218 28.3127 149.145 28.4175C148.998 28.6283 148.8 28.9024 148.545 29.2459L156.582 35.1969C157.119 34.4715 157.617 33.7738 157.943 33.232L149.369 28.0848ZM148.505 29.3007C148.081 29.8899 147.379 30.7831 146.352 32.0194L154.041 38.4124C155.118 37.1175 155.994 36.0145 156.622 35.1421L148.505 29.3007ZM146.351 32.0197C145.412 33.15 144.452 34.1997 143.471 35.1713L150.51 42.2741C151.73 41.0658 152.906 39.7777 154.042 38.412L146.351 32.0197ZM143.471 35.1713C142.638 35.9968 141.702 36.7406 140.653 37.4016L145.983 45.8627C147.631 44.8242 149.144 43.6284 150.51 42.2741L143.471 35.1713ZM140.633 37.4143C139.709 38.0025 139.27 38.0609 139.241 38.0633L140.088 48.0274C142.265 47.8423 144.262 46.9585 146.003 45.85L140.633 37.4143ZM139.241 38.0633C139.156 38.0705 139.25 38.0504 139.463 38.1033C139.696 38.1609 139.991 38.2869 140.275 38.5122L134.049 46.3379C135.945 47.8463 138.163 48.191 140.088 48.0274L139.241 38.0633ZM140.329 38.5564C140.602 38.7799 140.817 39.0619 140.953 39.349C141.082 39.6183 141.099 39.8004 141.1 39.8115L131.136 40.6586C131.306 42.6598 132.121 44.7598 133.994 46.2937L140.329 38.5564ZM141.1 39.8115C141.088 39.6745 141.093 39.2536 141.396 38.4559L132.048 34.9039C131.364 36.7058 130.966 38.655 131.136 40.6586L141.1 39.8115ZM141.387 38.4811C141.731 37.5883 142.411 36.2608 143.555 34.4356L135.083 29.1228C133.783 31.1972 132.731 33.1367 132.058 34.8787L141.387 38.4811ZM137.965 26.9662C136.012 27.5159 134.523 27.9335 133.496 28.2197C132.371 28.5331 131.965 28.642 131.996 28.6348L134.244 38.3789C134.622 38.2916 136.886 37.6582 140.674 36.5922L137.965 26.9662ZM129.098 30.5363C127.751 32.3598 126.327 34.4319 124.826 36.7442L133.215 42.1885C134.631 40.0057 135.94 38.1048 137.142 36.4774L129.098 30.5363ZM124.823 36.7488C123.344 39.0335 122.176 41.002 121.414 42.5792L130.42 46.927C130.908 45.9151 131.809 44.359 133.217 42.1839L124.823 36.7488ZM127.157 39.9092C127.251 39.9333 127.773 40.0877 128.302 40.6538C128.876 41.2695 129.081 41.9675 129.12 42.4226L119.156 43.2697C119.279 44.7142 119.822 46.2246 120.99 47.4759C122.111 48.6777 123.481 49.2909 124.678 49.597L127.157 39.9092ZM150.657 33.143L146.455 30.434L146.44 30.4573L146.425 30.4808L150.657 33.143ZM152.988 29.147L157.374 31.5478L157.38 31.5376L157.385 31.5273L152.988 29.147ZM155.356 24.1433L150.72 22.2701L150.718 22.275L155.356 24.1433ZM156.059 20.0162L155.635 15.0342L150.872 15.4391L151.063 20.2156L156.059 20.0162ZM159.652 20.2008L157.755 24.8272L157.779 24.8369L157.803 24.8463L159.652 20.2008ZM159.842 24.742L155.352 22.542L155.342 22.5627L155.332 22.5836L159.842 24.742ZM157.398 29.1397L153.154 26.4968L157.398 29.1397ZM154.444 33.8747L150.204 31.2243L154.444 33.8747ZM150.838 41.8994L149.223 46.6314L155.884 48.9046L155.838 41.8667L150.838 41.8994ZM157.683 14.9043L154.567 10.9939L146.29 17.5892L156.641 19.7945L157.683 14.9043ZM158.256 14.439L155.193 10.4863L155.138 10.5292L155.084 10.5736L158.256 14.439ZM159.676 12.9951L163.388 16.3454L163.407 16.3241L163.426 16.3026L159.676 12.9951ZM161.617 10.4535L165.784 13.2158L165.794 13.2004L165.805 13.1849L161.617 10.4535ZM162.791 8.41794L158.353 6.11567L158.331 6.15791L158.31 6.20057L162.791 8.41794ZM163.454 6.98949L168.178 8.62585L168.217 8.51401L168.25 8.40047L163.454 6.98949ZM163.587 6.53714L166.478 2.45811L160.766 -1.59143L158.79 5.12616L163.587 6.53714ZM163.87 13.3247L167.434 16.8317L167.448 16.8171L167.462 16.8024L163.87 13.3247ZM153.571 38.6533C153.583 38.7915 153.532 38.6237 153.762 38.0348L144.448 34.3956C143.846 35.9356 143.452 37.6756 143.607 39.5004L153.571 38.6533ZM153.762 38.0348C154.062 37.2689 154.436 36.5266 154.89 35.8053L146.425 30.4808C145.641 31.7268 144.981 33.0326 144.448 34.3956L153.762 38.0348ZM154.86 35.852C155.587 34.7239 156.429 33.2751 157.374 31.5478L148.602 26.7462C147.71 28.3768 146.998 29.592 146.455 30.434L154.86 35.852ZM157.385 31.5273C158.385 29.6808 159.257 27.8421 159.994 26.0116L150.718 22.275C150.134 23.7258 149.427 25.223 148.591 26.7667L157.385 31.5273ZM159.992 26.0166C160.793 24.0352 161.14 21.9509 161.055 19.8168L151.063 20.2156C151.093 20.9793 150.972 21.6464 150.72 22.2701L159.992 26.0166ZM156.482 24.9983L156.823 24.9693L155.976 15.0052L155.635 15.0342L156.482 24.9983ZM156.823 24.9693C157.417 24.9188 157.8 24.9196 158.016 24.9337C158.119 24.9405 158.147 24.9481 158.116 24.942C158.088 24.9365 157.955 24.909 157.755 24.8272L161.548 15.5744C159.704 14.8184 157.578 14.869 155.976 15.0052L156.823 24.9693ZM157.803 24.8463C157.446 24.7042 156.898 24.3877 156.435 23.7709C155.969 23.1496 155.811 22.5178 155.775 22.0985L165.739 21.2514C165.643 20.1186 165.27 18.8843 164.436 17.7716C163.605 16.6634 162.534 15.9666 161.501 15.5553L157.803 24.8463ZM155.775 22.0985C155.75 21.8051 155.774 21.6042 155.785 21.5317C155.796 21.4549 155.803 21.4475 155.781 21.5227C155.759 21.595 155.718 21.7171 155.645 21.8948C155.573 22.0711 155.478 22.2859 155.352 22.542L164.332 26.9421C165.021 25.5362 165.924 23.4193 165.739 21.2514L155.775 22.0985ZM155.332 22.5836C154.775 23.7476 154.054 25.0504 153.154 26.4968L161.642 31.7826C162.697 30.0898 163.605 28.4609 164.352 26.9005L155.332 22.5836ZM153.154 26.4968C152.178 28.0638 151.195 29.6396 150.204 31.2243L158.684 36.5251C159.677 34.9355 160.664 33.3547 161.642 31.7826L153.154 26.4968ZM150.204 31.2243C149.13 32.9423 148.189 34.6267 147.392 36.2761L156.394 40.6299C157.013 39.3492 157.773 37.9814 158.684 36.5251L150.204 31.2243ZM147.392 36.2761C146.609 37.8936 145.825 39.9044 145.838 41.9321L155.838 41.8667C155.84 42.1272 155.792 42.1611 155.879 41.8764C155.959 41.6152 156.115 41.2069 156.394 40.6299L147.392 36.2761ZM152.453 37.1674C152.474 37.1747 152.816 37.3036 153.152 37.7248C153.494 38.155 153.563 38.553 153.571 38.6533L143.607 39.5004C143.735 41.0116 144.238 42.5856 145.331 43.9566C146.416 45.3186 147.822 46.1534 149.223 46.6314L152.453 37.1674ZM160.798 18.8146C160.964 18.6828 161.176 18.5102 161.427 18.3045L155.084 10.5736C154.846 10.7687 154.677 10.9063 154.567 10.9939L160.798 18.8146ZM161.318 18.3917C161.991 17.8697 162.76 17.0411 163.388 16.3454L155.965 9.64483C155.648 9.9961 155.41 10.2491 155.242 10.4197C155.159 10.5043 155.108 10.5531 155.085 10.5748C155.053 10.6045 155.095 10.5623 155.193 10.4863L161.318 18.3917ZM163.426 16.3026C164.272 15.3434 165.057 14.3125 165.784 13.2158L157.449 7.69116C156.96 8.42928 156.451 9.09285 155.927 9.68764L163.426 16.3026ZM165.805 13.1849C166.357 12.3376 166.851 11.4871 167.273 10.6353L158.31 6.20057C158.09 6.64471 157.801 7.15127 157.429 7.72205L165.805 13.1849ZM167.23 10.7202C167.573 10.0573 167.944 9.30161 168.178 8.62585L158.729 5.35313C158.755 5.27796 158.752 5.3015 158.674 5.46977C158.604 5.62089 158.499 5.83307 158.353 6.11567L167.23 10.7202ZM168.25 8.40047L168.384 7.94812L158.79 5.12616L158.657 5.57851L168.25 8.40047ZM160.695 10.6162C160.683 10.6074 160.556 10.5098 160.434 10.2992C160.31 10.0852 160.276 9.90169 160.27 9.83287L170.234 8.98579C170.004 6.27544 168.652 3.99862 166.478 2.45811L160.695 10.6162ZM160.27 9.83287C160.273 9.86877 160.274 9.89402 160.273 9.90951C160.273 9.9249 160.272 9.93148 160.272 9.93032C160.273 9.92907 160.274 9.92183 160.276 9.90975C160.279 9.89761 160.283 9.88301 160.289 9.86696C160.295 9.85092 160.301 9.83601 160.307 9.82299C160.314 9.81001 160.319 9.80121 160.321 9.79691C160.324 9.79267 160.323 9.7946 160.317 9.80254C160.311 9.81057 160.298 9.82553 160.277 9.84693L167.462 16.8024C169.533 14.6635 170.484 11.9299 170.234 8.98579L160.27 9.83287ZM160.306 9.81767C160.128 9.999 159.953 10.1097 159.532 10.1455L160.379 20.1096C163.072 19.8807 165.507 18.7895 167.434 16.8317L160.306 9.81767ZM159.532 10.1455C159.618 10.1382 159.599 10.1486 159.438 10.1329C159.285 10.1178 159.051 10.0835 158.724 10.014L156.641 19.7945C157.793 20.04 159.096 20.2187 160.379 20.1096L159.532 10.1455ZM161.478 31.0225L156.82 29.206L156.814 29.2226L156.807 29.2391L161.478 31.0225ZM164.64 25.5592L160.735 22.437L160.727 22.4476L160.718 22.4581L164.64 25.5592ZM169.21 20.8093L165.954 17.0153L165.946 17.0223L165.938 17.0293L169.21 20.8093ZM182.73 16.1317L185.512 11.9768L182.73 16.1317ZM182.271 21.6837L185.977 25.0405L182.271 21.6837ZM171.507 26.7886L170.57 21.8773L166.144 22.7221L166.525 27.2121L171.507 26.7886ZM171.524 26.9832L166.542 27.4067L167.001 32.8032L172.343 31.9156L171.524 26.9832ZM176.695 27.2787L174.241 31.6352L174.262 31.6472L174.283 31.6589L176.695 27.2787ZM177.122 32.8779L172.756 30.4396L172.745 30.46L172.734 30.4805L177.122 32.8779ZM174.336 36.4225L170.91 32.7804L170.898 32.7913L170.887 32.8023L174.336 36.4225ZM170.265 39.2678L172.524 43.7283L172.536 43.7226L172.547 43.7167L170.265 39.2678ZM162.172 39.7598L159.142 43.7368L159.16 43.7509L159.179 43.7648L162.172 39.7598ZM164.931 39.0597L161.359 42.5592L161.398 42.5984L161.437 42.6366L164.931 39.0597ZM172.769 33.2724L177.322 35.3386L172.769 33.2724ZM167.672 28.3643L166.119 23.6117L164.443 24.1594L163.481 25.6369L167.672 28.3643ZM168.365 27.0067L164.215 24.2188L156.616 35.531L169.728 31.8175L168.365 27.0067ZM173.246 24.7542L170.654 20.4785L170.646 20.483L170.639 20.4875L173.246 24.7542ZM177.814 21.1315L181.448 24.5657L181.45 24.5632L177.814 21.1315ZM165.573 36.0158C165.506 35.2239 165.626 34.1776 166.15 32.8059L156.807 29.2391C155.861 31.7167 155.39 34.2816 155.609 36.8629L165.573 36.0158ZM166.137 32.8389C166.697 31.4016 167.495 30.0099 168.563 28.6603L160.718 22.4581C159.071 24.5409 157.762 26.7914 156.82 29.206L166.137 32.8389ZM168.546 28.6814C169.727 27.2036 171.039 25.8402 172.483 24.5894L165.938 17.0293C164.035 18.6765 162.3 20.4798 160.735 22.437L168.546 28.6814ZM172.467 24.6034C173.862 23.4058 175.282 22.4671 176.725 21.7586L172.317 12.7827C170.059 13.8916 167.938 15.3119 165.954 17.0153L172.467 24.6034ZM176.725 21.7586C178.166 21.0507 179.288 20.7563 180.128 20.6849L179.281 10.7208C176.91 10.9224 174.576 11.6732 172.317 12.7827L176.725 21.7586ZM180.128 20.6849C180.35 20.666 180.518 20.6608 180.64 20.662C180.762 20.6631 180.818 20.6707 180.817 20.6706C180.816 20.6704 180.795 20.6675 180.758 20.659C180.722 20.6505 180.665 20.6357 180.591 20.6107C180.446 20.5615 180.216 20.4656 179.949 20.2866L185.512 11.9768C183.411 10.5709 180.913 10.5821 179.281 10.7208L180.128 20.6849ZM179.949 20.2866C179.597 20.0513 179.272 19.7085 179.044 19.2894C178.828 18.891 178.776 18.5655 178.765 18.4289L188.729 17.5819C188.552 15.4973 187.591 13.3687 185.512 11.9768L179.949 20.2866ZM178.765 18.4289C178.758 18.3433 178.761 18.2533 178.774 18.1675C178.787 18.0829 178.807 18.0252 178.817 17.9995C178.836 17.9532 178.801 18.067 178.565 18.3269L185.977 25.0405C187.708 23.1295 188.985 20.5925 188.729 17.5819L178.765 18.4289ZM178.565 18.3269C178.029 18.9188 177.139 19.6023 175.695 20.2757L179.92 29.3391C182.247 28.2544 184.333 26.8555 185.977 25.0405L178.565 18.3269ZM175.695 20.2757C174.23 20.9587 172.531 21.5029 170.57 21.8773L172.445 31.6999C175.113 31.1907 177.615 30.414 179.92 29.3391L175.695 20.2757ZM166.525 27.2121L166.542 27.4067L176.506 26.5597L176.489 26.3651L166.525 27.2121ZM172.343 31.9156C172.621 31.8695 172.885 31.8366 173.135 31.8152L172.288 21.8512C171.761 21.896 171.233 21.9631 170.705 22.0508L172.343 31.9156ZM173.135 31.8152C173.849 31.7545 174.298 31.7688 174.538 31.7957C174.652 31.8084 174.676 31.8193 174.633 31.8072C174.591 31.7952 174.445 31.7502 174.241 31.6352L179.148 22.9222C176.948 21.6831 174.306 21.6797 172.288 21.8512L173.135 31.8152ZM174.283 31.6589C174.055 31.5331 173.718 31.2767 173.441 30.8459C173.168 30.4193 173.086 30.0284 173.068 29.8167L183.032 28.9696C182.813 26.3926 181.432 24.1792 179.106 22.8985L174.283 31.6589ZM173.068 29.8167C173.047 29.5684 173.155 29.7253 172.756 30.4396L181.487 35.3162C182.505 33.4924 183.233 31.3262 183.032 28.9696L173.068 29.8167ZM172.734 30.4805C172.32 31.2384 171.731 32.0082 170.91 32.7804L177.761 40.0646C179.27 38.646 180.538 37.0527 181.509 35.2753L172.734 30.4805ZM170.887 32.8023C170.121 33.5317 169.168 34.2113 167.983 34.8188L172.547 43.7167C174.493 42.7187 176.253 41.5014 177.784 40.0427L170.887 32.8023ZM168.006 34.8072C166.938 35.3483 166.036 35.5893 165.278 35.6538L166.125 45.6179C168.351 45.4286 170.492 44.7576 172.524 43.7283L168.006 34.8072ZM165.278 35.6538C165.029 35.675 164.941 35.6479 164.966 35.654C164.978 35.6571 165.008 35.6661 165.05 35.6857C165.092 35.7055 165.132 35.7297 165.166 35.7548L159.179 43.7648C161.294 45.3452 163.756 45.8193 166.125 45.6179L165.278 35.6538ZM165.203 35.7828C165.294 35.8526 165.38 35.9363 165.454 36.0281C165.527 36.1191 165.572 36.1987 165.597 36.2512C165.645 36.351 165.598 36.3069 165.573 36.0158L155.609 36.8629C155.819 39.3302 156.779 41.9366 159.142 43.7368L165.203 35.7828ZM159.37 38.1603C159.503 39.7224 160.118 41.2929 161.359 42.5592L168.502 35.5602C168.753 35.8166 168.964 36.1261 169.113 36.4671C169.259 36.8018 169.316 37.099 169.335 37.3132L159.37 38.1603ZM161.437 42.6366C163.253 44.411 165.52 44.5667 166.932 44.4467L166.085 34.4826C166.12 34.4797 166.399 34.4573 166.821 34.5658C167.28 34.6833 167.879 34.9506 168.424 35.4828L161.437 42.6366ZM166.932 44.4467C169.771 44.2053 171.979 42.5668 173.561 40.9057L166.319 34.0098C165.959 34.3873 165.737 34.5367 165.669 34.5766C165.614 34.6087 165.763 34.5099 166.085 34.4826L166.932 44.4467ZM173.561 40.9057C175.127 39.2613 176.387 37.4003 177.322 35.3386L168.216 31.2062C167.748 32.2367 167.122 33.166 166.319 34.0098L173.561 40.9057ZM177.322 35.3386C178.172 33.4665 178.866 31.2591 178.673 28.9971L168.709 29.8442C168.697 29.6951 168.727 29.7218 168.663 29.9857C168.601 30.2446 168.471 30.6456 168.216 31.2062L177.322 35.3386ZM178.673 28.9971C178.533 27.3436 177.846 25.8003 176.645 24.585L169.533 31.6145C169.32 31.3988 169.114 31.1171 168.958 30.7757C168.803 30.436 168.732 30.1121 168.709 29.8442L178.673 28.9971ZM176.645 24.585C174.788 22.7062 172.419 22.5506 170.962 22.6745L171.809 32.6386C171.799 32.6394 171.735 32.6444 171.627 32.6379C171.519 32.6313 171.35 32.6122 171.136 32.5567C170.686 32.4395 170.079 32.1671 169.533 31.6145L176.645 24.585ZM170.962 22.6745C169.267 22.8186 167.639 23.1149 166.119 23.6117L169.225 33.1168C169.867 32.9072 170.714 32.7317 171.809 32.6386L170.962 22.6745ZM163.481 25.6369C162.223 27.5706 161.201 29.58 160.438 31.6645L169.83 35.1004C170.313 33.7794 170.983 32.4433 171.863 31.0917L163.481 25.6369ZM160.438 31.6645C159.68 33.7369 159.184 35.9612 159.37 38.1603L169.335 37.3132C169.317 37.1121 169.342 36.4335 169.83 35.1004L160.438 31.6645ZM169.728 31.8175C171.77 31.2391 173.819 30.2635 175.853 29.0208L170.639 20.4875C169.132 21.408 167.927 21.934 167.003 22.1959L169.728 31.8175ZM175.838 29.0299C177.955 27.7462 179.841 26.2656 181.448 24.5657L174.18 17.6973C173.268 18.6617 172.109 19.5962 170.654 20.4785L175.838 29.0299ZM181.45 24.5632C182.883 23.0448 184.859 20.4857 184.584 17.2482L174.62 18.0952C174.589 17.7295 174.631 17.4352 174.679 17.241C174.702 17.1453 174.726 17.074 174.744 17.0283C174.762 16.9828 174.774 16.9592 174.774 16.9582C174.775 16.9572 174.766 16.9745 174.743 17.0106C174.72 17.0465 174.686 17.0975 174.636 17.1636C174.536 17.2979 174.388 17.4767 174.177 17.6999L181.45 24.5632ZM184.584 17.2482C184.488 16.1117 184.004 14.4109 182.394 13.1831C180.884 12.0318 179.253 11.9728 178.34 12.0504L179.187 22.0144C178.793 22.0479 177.561 22.0734 176.331 21.1352C175 20.1205 174.677 18.7614 174.62 18.0952L184.584 17.2482ZM178.34 12.0504C176.597 12.1986 175.113 12.9676 174.042 13.6597C172.899 14.399 171.756 15.3639 170.629 16.4475L177.562 23.6545C178.428 22.8208 179.06 22.324 179.472 22.0571C179.672 21.928 179.76 21.8922 179.746 21.8981C179.737 21.9019 179.538 21.9846 179.187 22.0144L178.34 12.0504ZM170.629 16.4475C168.338 18.6518 166.205 21.256 164.215 24.2188L172.516 29.7947C174.18 27.3177 175.867 25.2848 177.562 23.6545L170.629 16.4475Z" fill="white" mask="url(#path-1-outside-1_1488_23)"/>
<defs>
<linearGradient id="paint0_linear_1488_23" x1="9.81003" y1="74.1041" x2="190.021" y2="49.7614" gradientUnits="userSpaceOnUse">
<stop stop-color="#EB5658"/>
<stop offset="0.495" stop-color="#FF8889"/>
<stop offset="1" stop-color="#EB5658"/>
</linearGradient>
</defs>
</svg>
