<svg width="1920" height="821" viewBox="0 0 1920 821" fill="none" xmlns="http://www.w3.org/2000/svg">
<g filter="url(#filter0_i_1510_8)">
<path d="M0 60C0 26.8629 26.8629 0 60 0H1860C1893.14 0 1920 26.8629 1920 60V821H0V60Z" fill="#EB5658"/>
<path d="M0 60C0 26.8629 26.8629 0 60 0H1860C1893.14 0 1920 26.8629 1920 60V821H0V60Z" fill="url(#paint0_radial_1510_8)" fill-opacity="0.2"/>
</g>
<path d="M0.5 60C0.5 27.1391 27.1391 0.5 60 0.5H1860C1892.86 0.5 1919.5 27.1391 1919.5 60V820.5H0.5V60Z" stroke="white" stroke-opacity="0.2"/>
<path d="M0.5 60C0.5 27.1391 27.1391 0.5 60 0.5H1860C1892.86 0.5 1919.5 27.1391 1919.5 60V820.5H0.5V60Z" stroke="url(#paint1_radial_1510_8)" stroke-opacity="0.4"/>
<defs>
<filter id="filter0_i_1510_8" x="0" y="0" width="1920" height="825" filterUnits="userSpaceOnUse" color-interpolation-filters="sRGB">
<feFlood flood-opacity="0" result="BackgroundImageFix"/>
<feBlend mode="normal" in="SourceGraphic" in2="BackgroundImageFix" result="shape"/>
<feColorMatrix in="SourceAlpha" type="matrix" values="0 0 0 0 0 0 0 0 0 0 0 0 0 0 0 0 0 0 127 0" result="hardAlpha"/>
<feOffset dy="4"/>
<feGaussianBlur stdDeviation="10.25"/>
<feComposite in2="hardAlpha" operator="arithmetic" k2="-1" k3="1"/>
<feColorMatrix type="matrix" values="0 0 0 0 0.983333 0 0 0 0 0.823542 0 0 0 0 0.892024 0 0 0 0.4 0"/>
<feBlend mode="normal" in2="shape" result="effect1_innerShadow_1510_8"/>
</filter>
<radialGradient id="paint0_radial_1510_8" cx="0" cy="0" r="1" gradientUnits="userSpaceOnUse" gradientTransform="translate(1019.82 172.41) rotate(93.0792) scale(1060.62 1034.78)">
<stop stop-color="white"/>
<stop offset="1" stop-color="white" stop-opacity="0"/>
</radialGradient>
<radialGradient id="paint1_radial_1510_8" cx="0" cy="0" r="1" gradientUnits="userSpaceOnUse" gradientTransform="translate(1001.19 6.21536e-05) rotate(90.9543) scale(570.674 675.509)">
<stop stop-color="white"/>
<stop offset="1" stop-color="white" stop-opacity="0"/>
</radialGradient>
</defs>
</svg>
