<svg width="428" height="643" viewBox="0 0 428 643" fill="none" xmlns="http://www.w3.org/2000/svg">
<g filter="url(#filter0_i_1505_157)">
<path d="M0 40C0 17.9086 17.9086 0 40 0H388C410.091 0 428 17.9086 428 40V1029H0V40Z" fill="#EB5658"/>
<path d="M0 40C0 17.9086 17.9086 0 40 0H388C410.091 0 428 17.9086 428 40V1029H0V40Z" fill="url(#paint0_radial_1505_157)" fill-opacity="0.2"/>
</g>
<path d="M40 0.5H388C409.815 0.5 427.5 18.1848 427.5 40V1028.5H0.5V40C0.5 18.1848 18.1848 0.5 40 0.5Z" stroke="white" stroke-opacity="0.2"/>
<path d="M40 0.5H388C409.815 0.5 427.5 18.1848 427.5 40V1028.5H0.5V40C0.5 18.1848 18.1848 0.5 40 0.5Z" stroke="url(#paint1_radial_1505_157)" stroke-opacity="0.4"/>
<defs>
<filter id="filter0_i_1505_157" x="0" y="0" width="428" height="1033" filterUnits="userSpaceOnUse" color-interpolation-filters="sRGB">
<feFlood flood-opacity="0" result="BackgroundImageFix"/>
<feBlend mode="normal" in="SourceGraphic" in2="BackgroundImageFix" result="shape"/>
<feColorMatrix in="SourceAlpha" type="matrix" values="0 0 0 0 0 0 0 0 0 0 0 0 0 0 0 0 0 0 127 0" result="hardAlpha"/>
<feOffset dy="4"/>
<feGaussianBlur stdDeviation="10.25"/>
<feComposite in2="hardAlpha" operator="arithmetic" k2="-1" k3="1"/>
<feColorMatrix type="matrix" values="0 0 0 0 0.983333 0 0 0 0 0.823542 0 0 0 0 0.892024 0 0 0 0.4 0"/>
<feBlend mode="normal" in2="shape" result="effect1_innerShadow_1505_157"/>
</filter>
<radialGradient id="paint0_radial_1505_157" cx="0" cy="0" r="1" gradientUnits="userSpaceOnUse" gradientTransform="translate(227.335 216.09) rotate(90.5482) scale(1327.47 230.992)">
<stop stop-color="white"/>
<stop offset="1" stop-color="white" stop-opacity="0"/>
</radialGradient>
<radialGradient id="paint1_radial_1505_157" cx="0" cy="0" r="1" gradientUnits="userSpaceOnUse" gradientTransform="translate(223.182 7.79002e-05) rotate(90.1698) scale(715.158 150.602)">
<stop stop-color="white"/>
<stop offset="1" stop-color="white" stop-opacity="0"/>
</radialGradient>
</defs>
</svg>
