<svg width="709" height="158" viewBox="0 0 709 158" fill="none" xmlns="http://www.w3.org/2000/svg">
<g filter="url(#filter0_b_14_5)">
<path d="M0 79C0 35.3695 35.3695 0 79 0H630C673.63 0 709 35.3695 709 79C709 122.63 673.63 158 630 158H79C35.3695 158 0 122.63 0 79Z" fill="white"/>
<path d="M0.5 79C0.5 35.6456 35.6456 0.5 79 0.5H630C673.354 0.5 708.5 35.6456 708.5 79C708.5 122.354 673.354 157.5 630 157.5H79C35.6457 157.5 0.5 122.354 0.5 79Z" stroke="#DDDDDD"/>
<path d="M0.5 79C0.5 35.6456 35.6456 0.5 79 0.5H630C673.354 0.5 708.5 35.6456 708.5 79C708.5 122.354 673.354 157.5 630 157.5H79C35.6457 157.5 0.5 122.354 0.5 79Z" stroke="url(#paint0_radial_14_5)" stroke-opacity="0.53"/>
</g>
<path d="M499.226 81.76C501.386 81.76 503.276 81.4 504.896 80.68C506.516 79.9 507.836 78.88 508.856 77.62C509.936 76.36 510.716 74.92 511.196 73.3C511.736 71.68 512.006 70 512.006 68.26C512.006 66.16 511.676 64.06 511.016 61.96C510.416 59.86 509.486 58 508.226 56.38C507.026 54.7 505.526 53.35 503.726 52.33C501.986 51.25 499.976 50.71 497.696 50.71C495.656 50.71 493.856 51.13 492.296 51.97C490.796 52.75 489.506 53.83 488.426 55.21C487.406 56.53 486.626 58.06 486.086 59.8C485.606 61.54 485.366 63.31 485.366 65.11C485.366 67.15 485.666 69.16 486.266 71.14C486.926 73.12 487.826 74.92 488.966 76.54C490.166 78.1 491.606 79.36 493.286 80.32C495.026 81.28 497.006 81.76 499.226 81.76ZM486.536 96.61C487.496 97.81 488.636 98.77 489.956 99.49C491.336 100.21 492.626 100.45 493.826 100.21C496.406 100.21 498.686 99.61 500.666 98.41C502.646 97.21 504.326 95.62 505.706 93.64C507.146 91.66 508.256 89.53 509.036 87.25C509.876 84.91 510.446 82.75 510.746 80.77C509.006 82.33 507.056 83.41 504.896 84.01C502.796 84.61 500.546 84.91 498.146 84.91C495.086 84.91 492.386 84.4 490.046 83.38C487.766 82.3 485.846 80.92 484.286 79.24C482.786 77.5 481.646 75.52 480.866 73.3C480.146 71.08 479.786 68.8 479.786 66.46C479.786 64.12 480.176 61.81 480.956 59.53C481.736 57.25 482.906 55.24 484.466 53.5C486.026 51.7 487.946 50.26 490.226 49.18C492.566 48.1 495.266 47.56 498.326 47.56C501.746 47.56 504.656 48.19 507.056 49.45C509.516 50.71 511.526 52.42 513.086 54.58C514.646 56.68 515.786 59.14 516.506 61.96C517.286 64.78 517.676 67.72 517.676 70.78C517.676 74.74 517.256 78.73 516.416 82.75C515.576 86.71 514.196 90.28 512.276 93.46C510.416 96.58 507.926 99.13 504.806 101.11C501.746 103.09 497.996 104.08 493.556 104.08C492.716 104.08 491.666 103.99 490.406 103.81C489.146 103.63 488.156 103.48 487.436 103.36C487.016 103.3 486.566 103.24 486.086 103.18C485.666 103.12 485.516 103.09 485.636 103.09V96.61H486.536ZM543.435 81.76C545.595 81.76 547.485 81.4 549.105 80.68C550.725 79.9 552.045 78.88 553.065 77.62C554.145 76.36 554.925 74.92 555.405 73.3C555.945 71.68 556.215 70 556.215 68.26C556.215 66.16 555.885 64.06 555.225 61.96C554.625 59.86 553.695 58 552.435 56.38C551.235 54.7 549.735 53.35 547.935 52.33C546.195 51.25 544.185 50.71 541.905 50.71C539.865 50.71 538.065 51.13 536.505 51.97C535.005 52.75 533.715 53.83 532.635 55.21C531.615 56.53 530.835 58.06 530.295 59.8C529.815 61.54 529.575 63.31 529.575 65.11C529.575 67.15 529.875 69.16 530.475 71.14C531.135 73.12 532.035 74.92 533.175 76.54C534.375 78.1 535.815 79.36 537.495 80.32C539.235 81.28 541.215 81.76 543.435 81.76ZM530.745 96.61C531.705 97.81 532.845 98.77 534.165 99.49C535.545 100.21 536.835 100.45 538.035 100.21C540.615 100.21 542.895 99.61 544.875 98.41C546.855 97.21 548.535 95.62 549.915 93.64C551.355 91.66 552.465 89.53 553.245 87.25C554.085 84.91 554.655 82.75 554.955 80.77C553.215 82.33 551.265 83.41 549.105 84.01C547.005 84.61 544.755 84.91 542.355 84.91C539.295 84.91 536.595 84.4 534.255 83.38C531.975 82.3 530.055 80.92 528.495 79.24C526.995 77.5 525.855 75.52 525.075 73.3C524.355 71.08 523.995 68.8 523.995 66.46C523.995 64.12 524.385 61.81 525.165 59.53C525.945 57.25 527.115 55.24 528.675 53.5C530.235 51.7 532.155 50.26 534.435 49.18C536.775 48.1 539.475 47.56 542.535 47.56C545.955 47.56 548.865 48.19 551.265 49.45C553.725 50.71 555.735 52.42 557.295 54.58C558.855 56.68 559.995 59.14 560.715 61.96C561.495 64.78 561.885 67.72 561.885 70.78C561.885 74.74 561.465 78.73 560.625 82.75C559.785 86.71 558.405 90.28 556.485 93.46C554.625 96.58 552.135 99.13 549.015 101.11C545.955 103.09 542.205 104.08 537.765 104.08C536.925 104.08 535.875 103.99 534.615 103.81C533.355 103.63 532.365 103.48 531.645 103.36C531.225 103.3 530.775 103.24 530.295 103.18C529.875 103.12 529.725 103.09 529.845 103.09V96.61H530.745Z" fill="#EB5658"/>
<path d="M582.317 102.5H582.567V103H575.367V102.5H575.617C575.884 102.5 576.117 102.417 576.317 102.25C576.517 102.05 576.684 101.817 576.817 101.55C576.984 101.283 577.101 101 577.167 100.7C577.234 100.4 577.267 100.117 577.267 99.85V73.1C577.267 72.8667 577.234 72.6 577.167 72.3C577.101 72 576.984 71.7167 576.817 71.45C576.684 71.1833 576.517 70.9667 576.317 70.8C576.117 70.6 575.884 70.5 575.617 70.5H575.367V70H594.617V75.3H594.117C594.117 74.1 593.851 73.2167 593.317 72.65C592.817 72.05 592.017 71.75 590.917 71.75H580.667V99.85C580.667 100.117 580.701 100.4 580.767 100.7C580.834 101 580.934 101.283 581.067 101.55C581.234 101.817 581.417 102.05 581.617 102.25C581.817 102.417 582.051 102.5 582.317 102.5ZM597.583 70H604.683C608.383 70 611.183 70.7167 613.083 72.15C615.016 73.55 615.983 75.55 615.983 78.15C615.983 79.55 615.649 80.8 614.983 81.9C614.316 83 613.433 83.9333 612.333 84.7C611.266 85.4333 610.049 86 608.683 86.4C607.349 86.8 606.016 87 604.683 87H602.783V99.75C602.783 100.017 602.816 100.317 602.883 100.65C602.949 100.95 603.049 101.233 603.183 101.5C603.349 101.767 603.516 102 603.683 102.2C603.883 102.4 604.116 102.5 604.383 102.5H604.633V103H597.583V102.5H597.833C598.066 102.5 598.283 102.4 598.483 102.2C598.683 102 598.849 101.767 598.983 101.5C599.116 101.233 599.216 100.95 599.283 100.65C599.349 100.317 599.383 100.017 599.383 99.75V73.1C599.383 72.6333 599.249 72.1 598.983 71.5C598.716 70.9 598.333 70.5667 597.833 70.5H597.583V70ZM602.783 71.75V85.25H604.283C605.616 85.25 606.799 85.0667 607.833 84.7C608.899 84.3333 609.783 83.85 610.483 83.25C611.183 82.65 611.716 81.9667 612.083 81.2C612.449 80.4333 612.633 79.65 612.633 78.85C612.633 77.8833 612.466 76.9833 612.133 76.15C611.833 75.2833 611.316 74.5333 610.583 73.9C609.883 73.2333 608.949 72.7167 607.783 72.35C606.616 71.95 605.183 71.75 603.483 71.75H602.783ZM640.19 102.5H640.44C640.674 102.5 640.89 102.417 641.09 102.25C641.29 102.05 641.457 101.817 641.59 101.55C641.757 101.25 641.874 100.95 641.94 100.65C642.007 100.317 642.04 100.017 642.04 99.75V86.15H626.04V99.75C626.04 100.017 626.074 100.317 626.14 100.65C626.207 100.95 626.307 101.233 626.44 101.5C626.574 101.767 626.724 102 626.89 102.2C627.09 102.4 627.324 102.5 627.59 102.5H627.84V103H620.84V102.5H621.09C621.324 102.5 621.54 102.417 621.74 102.25C621.94 102.05 622.107 101.817 622.24 101.55C622.407 101.25 622.524 100.95 622.59 100.65C622.657 100.317 622.69 100.017 622.69 99.75V73.1C622.69 72.8667 622.657 72.6 622.59 72.3C622.524 72 622.424 71.7167 622.29 71.45C622.157 71.1833 621.99 70.9667 621.79 70.8C621.59 70.6 621.357 70.5 621.09 70.5H620.84V70H627.84V70.5H627.59C627.324 70.5 627.09 70.6 626.89 70.8C626.69 70.9667 626.524 71.1833 626.39 71.45C626.29 71.7167 626.207 72 626.14 72.3C626.074 72.6 626.04 72.8667 626.04 73.1V84.4H642.04V73.1C642.04 72.8667 642.007 72.6 641.94 72.3C641.874 72 641.774 71.7167 641.64 71.45C641.507 71.1833 641.34 70.9667 641.14 70.8C640.94 70.6 640.707 70.5 640.44 70.5H640.19V70H647.19V70.5H646.94C646.674 70.5 646.44 70.6 646.24 70.8C646.04 70.9667 645.874 71.1833 645.74 71.45C645.64 71.7167 645.557 72 645.49 72.3C645.424 72.6 645.39 72.8667 645.39 73.1V99.75C645.39 100.017 645.424 100.317 645.49 100.65C645.59 100.95 645.707 101.233 645.84 101.5C645.974 101.767 646.124 102 646.29 102.2C646.49 102.4 646.707 102.5 646.94 102.5H647.19V103H640.19V102.5Z" fill="#3F3F3F"/>
<defs>
<filter id="filter0_b_14_5" x="-50" y="-50" width="809" height="258" filterUnits="userSpaceOnUse" color-interpolation-filters="sRGB">
<feFlood flood-opacity="0" result="BackgroundImageFix"/>
<feGaussianBlur in="BackgroundImageFix" stdDeviation="25"/>
<feComposite in2="SourceAlpha" operator="in" result="effect1_backgroundBlur_14_5"/>
<feBlend mode="normal" in="SourceGraphic" in2="effect1_backgroundBlur_14_5" result="shape"/>
</filter>
<radialGradient id="paint0_radial_14_5" cx="0" cy="0" r="1" gradientUnits="userSpaceOnUse" gradientTransform="translate(357.601 3.89068) rotate(90) scale(149.79 290.421)">
<stop stop-color="#BEBEBE"/>
<stop offset="1" stop-color="white" stop-opacity="0"/>
</radialGradient>
</defs>
</svg>
